<mxfile host="Electron" modified="2024-03-12T08:03:11.656Z" agent="Mozilla/5.0 (Windows NT 10.0; Win64; x64) AppleWebKit/537.36 (KHTML, like Gecko) draw.io/22.1.2 Chrome/114.0.5735.289 Electron/25.9.4 Safari/537.36" etag="guyxa4z8JQaUgZIQIbxZ" version="22.1.2" type="device">
  <diagram name="第 1 页" id="4qLuklAeGFxvdv6u6yow">
    <mxGraphModel dx="1633" dy="300" grid="1" gridSize="10" guides="1" tooltips="1" connect="1" arrows="1" fold="1" page="1" pageScale="1" pageWidth="1200" pageHeight="1920" math="0" shadow="0">
      <root>
        <mxCell id="0" />
        <mxCell id="1" parent="0" />
        <mxCell id="_zYzk73vHFBM92SBb8uo-40" value="" style="whiteSpace=wrap;html=1;strokeWidth=2;fontFamily=Comic Sans MS;sketch=1;curveFitting=1;jiggle=2;" vertex="1" parent="1">
          <mxGeometry x="-430" y="3480" width="390" height="320" as="geometry" />
        </mxCell>
        <mxCell id="IptE70Cl41YrFZPhkl_w-20" style="rounded=0;orthogonalLoop=1;jettySize=auto;html=1;exitX=1;exitY=0;exitDx=0;exitDy=0;strokeWidth=3;fillColor=#a20025;strokeColor=#6F0000;fontFamily=Comic Sans MS;" parent="1" source="IptE70Cl41YrFZPhkl_w-2" edge="1">
          <mxGeometry relative="1" as="geometry">
            <mxPoint x="880" y="1440" as="targetPoint" />
            <Array as="points">
              <mxPoint x="460" y="1240" />
              <mxPoint x="640" y="1220" />
            </Array>
            <mxPoint x="370" y="1310" as="sourcePoint" />
          </mxGeometry>
        </mxCell>
        <mxCell id="IptE70Cl41YrFZPhkl_w-22" value="1" style="edgeLabel;html=1;align=center;verticalAlign=middle;resizable=0;points=[];fontStyle=1;fontFamily=Comic Sans MS;fontSize=20;" parent="IptE70Cl41YrFZPhkl_w-20" vertex="1" connectable="0">
          <mxGeometry x="-0.0699" y="1" relative="1" as="geometry">
            <mxPoint as="offset" />
          </mxGeometry>
        </mxCell>
        <mxCell id="IptE70Cl41YrFZPhkl_w-2" value="" style="rounded=1;whiteSpace=wrap;html=1;strokeWidth=3;fontFamily=Comic Sans MS;" parent="1" vertex="1">
          <mxGeometry x="280" y="1320" width="80" height="40" as="geometry" />
        </mxCell>
        <mxCell id="IptE70Cl41YrFZPhkl_w-21" style="rounded=0;orthogonalLoop=1;jettySize=auto;html=1;exitX=0;exitY=0.5;exitDx=0;exitDy=0;strokeWidth=3;fillColor=#a20025;strokeColor=#6F0000;fontFamily=Comic Sans MS;" parent="1" source="IptE70Cl41YrFZPhkl_w-3" edge="1">
          <mxGeometry relative="1" as="geometry">
            <mxPoint x="600" y="1440" as="targetPoint" />
            <Array as="points">
              <mxPoint x="260" y="1210" />
              <mxPoint x="510" y="1190" />
            </Array>
          </mxGeometry>
        </mxCell>
        <mxCell id="IptE70Cl41YrFZPhkl_w-23" value="2" style="edgeLabel;html=1;align=center;verticalAlign=middle;resizable=0;points=[];fontStyle=1;fontFamily=Comic Sans MS;fontSize=20;" parent="IptE70Cl41YrFZPhkl_w-21" vertex="1" connectable="0">
          <mxGeometry x="0.5686" y="3" relative="1" as="geometry">
            <mxPoint as="offset" />
          </mxGeometry>
        </mxCell>
        <mxCell id="IptE70Cl41YrFZPhkl_w-3" value="" style="rounded=1;whiteSpace=wrap;html=1;strokeWidth=3;fontFamily=Comic Sans MS;" parent="1" vertex="1">
          <mxGeometry x="240" y="1360" width="160" height="40" as="geometry" />
        </mxCell>
        <mxCell id="IptE70Cl41YrFZPhkl_w-4" value="" style="rounded=1;whiteSpace=wrap;html=1;strokeWidth=3;fontFamily=Comic Sans MS;" parent="1" vertex="1">
          <mxGeometry x="200" y="1400" width="240" height="40" as="geometry" />
        </mxCell>
        <mxCell id="IptE70Cl41YrFZPhkl_w-5" value="" style="endArrow=none;html=1;rounded=0;strokeWidth=3;fontFamily=Comic Sans MS;" parent="1" edge="1">
          <mxGeometry width="50" height="50" relative="1" as="geometry">
            <mxPoint x="320" y="1440" as="sourcePoint" />
            <mxPoint x="320" y="1240" as="targetPoint" />
          </mxGeometry>
        </mxCell>
        <mxCell id="IptE70Cl41YrFZPhkl_w-9" value="" style="endArrow=none;html=1;rounded=0;strokeWidth=3;fontFamily=Comic Sans MS;" parent="1" edge="1">
          <mxGeometry width="50" height="50" relative="1" as="geometry">
            <mxPoint x="600" y="1440" as="sourcePoint" />
            <mxPoint x="600" y="1240" as="targetPoint" />
          </mxGeometry>
        </mxCell>
        <mxCell id="IptE70Cl41YrFZPhkl_w-13" value="" style="endArrow=none;html=1;rounded=0;strokeWidth=3;fontFamily=Comic Sans MS;" parent="1" edge="1">
          <mxGeometry width="50" height="50" relative="1" as="geometry">
            <mxPoint x="880" y="1440" as="sourcePoint" />
            <mxPoint x="880" y="1240" as="targetPoint" />
          </mxGeometry>
        </mxCell>
        <mxCell id="IptE70Cl41YrFZPhkl_w-24" style="rounded=0;orthogonalLoop=1;jettySize=auto;html=1;strokeWidth=3;fillColor=#a20025;strokeColor=#6F0000;fontFamily=Comic Sans MS;" parent="1" target="IptE70Cl41YrFZPhkl_w-15" edge="1">
          <mxGeometry relative="1" as="geometry">
            <mxPoint x="880" y="1640" as="targetPoint" />
            <Array as="points">
              <mxPoint x="780" y="1550" />
              <mxPoint x="690" y="1560" />
            </Array>
            <mxPoint x="880" y="1640" as="sourcePoint" />
          </mxGeometry>
        </mxCell>
        <mxCell id="IptE70Cl41YrFZPhkl_w-25" value="3" style="edgeLabel;html=1;align=center;verticalAlign=middle;resizable=0;points=[];fontFamily=Comic Sans MS;fontStyle=1;fontSize=20;" parent="IptE70Cl41YrFZPhkl_w-24" vertex="1" connectable="0">
          <mxGeometry x="-0.0272" y="5" relative="1" as="geometry">
            <mxPoint x="-23" as="offset" />
          </mxGeometry>
        </mxCell>
        <mxCell id="IptE70Cl41YrFZPhkl_w-14" value="" style="rounded=1;whiteSpace=wrap;html=1;strokeWidth=3;fontFamily=Comic Sans MS;" parent="1" vertex="1">
          <mxGeometry x="840" y="1640" width="80" height="40" as="geometry" />
        </mxCell>
        <mxCell id="IptE70Cl41YrFZPhkl_w-15" value="" style="rounded=1;whiteSpace=wrap;html=1;strokeWidth=3;fontFamily=Comic Sans MS;" parent="1" vertex="1">
          <mxGeometry x="520" y="1640" width="160" height="40" as="geometry" />
        </mxCell>
        <mxCell id="IptE70Cl41YrFZPhkl_w-16" value="" style="rounded=1;whiteSpace=wrap;html=1;strokeWidth=3;fontFamily=Comic Sans MS;" parent="1" vertex="1">
          <mxGeometry x="200" y="1640" width="240" height="40" as="geometry" />
        </mxCell>
        <mxCell id="IptE70Cl41YrFZPhkl_w-17" value="" style="endArrow=none;html=1;rounded=0;strokeWidth=3;fontFamily=Comic Sans MS;" parent="1" edge="1">
          <mxGeometry width="50" height="50" relative="1" as="geometry">
            <mxPoint x="320" y="1680" as="sourcePoint" />
            <mxPoint x="320" y="1480" as="targetPoint" />
          </mxGeometry>
        </mxCell>
        <mxCell id="IptE70Cl41YrFZPhkl_w-18" value="" style="endArrow=none;html=1;rounded=0;strokeWidth=3;fontFamily=Comic Sans MS;" parent="1" edge="1">
          <mxGeometry width="50" height="50" relative="1" as="geometry">
            <mxPoint x="600" y="1680" as="sourcePoint" />
            <mxPoint x="600" y="1480" as="targetPoint" />
          </mxGeometry>
        </mxCell>
        <mxCell id="IptE70Cl41YrFZPhkl_w-19" value="" style="endArrow=none;html=1;rounded=0;strokeWidth=3;fontFamily=Comic Sans MS;" parent="1" edge="1">
          <mxGeometry width="50" height="50" relative="1" as="geometry">
            <mxPoint x="880" y="1680" as="sourcePoint" />
            <mxPoint x="880" y="1480" as="targetPoint" />
          </mxGeometry>
        </mxCell>
        <mxCell id="IptE70Cl41YrFZPhkl_w-34" value="" style="rounded=1;whiteSpace=wrap;html=1;strokeWidth=3;fontFamily=Comic Sans MS;" parent="1" vertex="1">
          <mxGeometry x="560" y="1840" width="80" height="40" as="geometry" />
        </mxCell>
        <mxCell id="IptE70Cl41YrFZPhkl_w-35" value="" style="rounded=1;whiteSpace=wrap;html=1;strokeWidth=3;fontFamily=Comic Sans MS;" parent="1" vertex="1">
          <mxGeometry x="520" y="1880" width="160" height="40" as="geometry" />
        </mxCell>
        <mxCell id="IptE70Cl41YrFZPhkl_w-36" value="" style="rounded=1;whiteSpace=wrap;html=1;strokeWidth=3;fontFamily=Comic Sans MS;" parent="1" vertex="1">
          <mxGeometry x="200" y="1880" width="240" height="40" as="geometry" />
        </mxCell>
        <mxCell id="IptE70Cl41YrFZPhkl_w-37" value="" style="endArrow=none;html=1;rounded=0;strokeWidth=3;fontFamily=Comic Sans MS;" parent="1" edge="1">
          <mxGeometry width="50" height="50" relative="1" as="geometry">
            <mxPoint x="320" y="1920" as="sourcePoint" />
            <mxPoint x="320" y="1720" as="targetPoint" />
          </mxGeometry>
        </mxCell>
        <mxCell id="IptE70Cl41YrFZPhkl_w-38" value="" style="endArrow=none;html=1;rounded=0;strokeWidth=3;fontFamily=Comic Sans MS;" parent="1" edge="1">
          <mxGeometry width="50" height="50" relative="1" as="geometry">
            <mxPoint x="600" y="1920" as="sourcePoint" />
            <mxPoint x="600" y="1720" as="targetPoint" />
          </mxGeometry>
        </mxCell>
        <mxCell id="IptE70Cl41YrFZPhkl_w-39" value="" style="endArrow=none;html=1;rounded=0;strokeWidth=3;fontFamily=Comic Sans MS;" parent="1" edge="1">
          <mxGeometry width="50" height="50" relative="1" as="geometry">
            <mxPoint x="880" y="1920" as="sourcePoint" />
            <mxPoint x="880" y="1720" as="targetPoint" />
          </mxGeometry>
        </mxCell>
        <mxCell id="HMn--_Nn2pT3gd7UrFBs-1" value="" style="whiteSpace=wrap;html=1;strokeWidth=2;fillColor=#a20025;fontColor=#ffffff;strokeColor=#6F0000;fontFamily=Comic Sans MS;" parent="1" vertex="1">
          <mxGeometry x="360" y="2760" width="40" height="40" as="geometry" />
        </mxCell>
        <mxCell id="HMn--_Nn2pT3gd7UrFBs-2" value="" style="whiteSpace=wrap;html=1;strokeWidth=2;fillColor=#a20025;fontColor=#ffffff;strokeColor=#6F0000;fontFamily=Comic Sans MS;" parent="1" vertex="1">
          <mxGeometry x="400" y="2760" width="40" height="40" as="geometry" />
        </mxCell>
        <mxCell id="HMn--_Nn2pT3gd7UrFBs-3" value="" style="whiteSpace=wrap;html=1;strokeWidth=2;fillColor=#e3c800;fontColor=#000000;strokeColor=#B09500;fontFamily=Comic Sans MS;" parent="1" vertex="1">
          <mxGeometry x="440" y="2760" width="40" height="40" as="geometry" />
        </mxCell>
        <mxCell id="HMn--_Nn2pT3gd7UrFBs-4" value="" style="whiteSpace=wrap;html=1;strokeWidth=2;fillColor=#e3c800;fontColor=#000000;strokeColor=#B09500;fontFamily=Comic Sans MS;" parent="1" vertex="1">
          <mxGeometry x="480" y="2760" width="40" height="40" as="geometry" />
        </mxCell>
        <mxCell id="HMn--_Nn2pT3gd7UrFBs-5" value="" style="whiteSpace=wrap;html=1;strokeWidth=2;fillColor=#e3c800;fontColor=#000000;strokeColor=#B09500;fontFamily=Comic Sans MS;" parent="1" vertex="1">
          <mxGeometry x="520" y="2760" width="40" height="40" as="geometry" />
        </mxCell>
        <mxCell id="HMn--_Nn2pT3gd7UrFBs-6" value="" style="whiteSpace=wrap;html=1;strokeWidth=2;fillColor=#0050ef;fontColor=#ffffff;strokeColor=#001DBC;fontFamily=Comic Sans MS;" parent="1" vertex="1">
          <mxGeometry x="600" y="2760" width="40" height="40" as="geometry" />
        </mxCell>
        <mxCell id="HMn--_Nn2pT3gd7UrFBs-7" value="" style="whiteSpace=wrap;html=1;strokeWidth=2;fillColor=#0050ef;fontColor=#ffffff;strokeColor=#001DBC;fontFamily=Comic Sans MS;" parent="1" vertex="1">
          <mxGeometry x="640" y="2760" width="40" height="40" as="geometry" />
        </mxCell>
        <mxCell id="HMn--_Nn2pT3gd7UrFBs-8" value="" style="whiteSpace=wrap;html=1;strokeWidth=2;fillColor=#0050ef;fontColor=#ffffff;strokeColor=#001DBC;fontFamily=Comic Sans MS;" parent="1" vertex="1">
          <mxGeometry x="680" y="2760" width="40" height="40" as="geometry" />
        </mxCell>
        <mxCell id="HMn--_Nn2pT3gd7UrFBs-9" value="" style="shape=curlyBracket;whiteSpace=wrap;html=1;rounded=1;labelPosition=left;verticalLabelPosition=middle;align=right;verticalAlign=middle;rotation=-90;strokeWidth=2;fontFamily=Comic Sans MS;" parent="1" vertex="1">
          <mxGeometry x="390" y="2770" width="20" height="80" as="geometry" />
        </mxCell>
        <mxCell id="HMn--_Nn2pT3gd7UrFBs-10" value="" style="shape=curlyBracket;whiteSpace=wrap;html=1;rounded=1;labelPosition=left;verticalLabelPosition=middle;align=right;verticalAlign=middle;rotation=-90;strokeWidth=2;fontFamily=Comic Sans MS;" parent="1" vertex="1">
          <mxGeometry x="650" y="2750" width="20" height="120" as="geometry" />
        </mxCell>
        <mxCell id="HMn--_Nn2pT3gd7UrFBs-11" value="" style="shape=curlyBracket;whiteSpace=wrap;html=1;rounded=1;labelPosition=left;verticalLabelPosition=middle;align=right;verticalAlign=middle;rotation=-90;strokeWidth=2;fontFamily=Comic Sans MS;" parent="1" vertex="1">
          <mxGeometry x="510" y="2730" width="20" height="160" as="geometry" />
        </mxCell>
        <mxCell id="HMn--_Nn2pT3gd7UrFBs-13" value="&lt;b&gt;和为 a&lt;/b&gt;" style="text;html=1;align=center;verticalAlign=middle;resizable=0;points=[];autosize=1;strokeColor=none;fillColor=none;fontFamily=Comic Sans MS;" parent="1" vertex="1">
          <mxGeometry x="370" y="2820" width="60" height="30" as="geometry" />
        </mxCell>
        <mxCell id="HMn--_Nn2pT3gd7UrFBs-14" value="&lt;b&gt;和为&amp;nbsp;&lt;/b&gt;&lt;b&gt;b&lt;/b&gt;" style="text;html=1;align=center;verticalAlign=middle;resizable=0;points=[];autosize=1;strokeColor=none;fillColor=none;fontFamily=Comic Sans MS;" parent="1" vertex="1">
          <mxGeometry x="630" y="2820" width="60" height="30" as="geometry" />
        </mxCell>
        <mxCell id="HMn--_Nn2pT3gd7UrFBs-15" value="&lt;b&gt;和为 sum - x&lt;/b&gt;" style="text;html=1;align=center;verticalAlign=middle;resizable=0;points=[];autosize=1;strokeColor=none;fillColor=none;fontFamily=Comic Sans MS;" parent="1" vertex="1">
          <mxGeometry x="470" y="2820" width="100" height="30" as="geometry" />
        </mxCell>
        <mxCell id="HMn--_Nn2pT3gd7UrFBs-17" value="" style="shape=curlyBracket;whiteSpace=wrap;html=1;rounded=1;labelPosition=left;verticalLabelPosition=middle;align=right;verticalAlign=middle;rotation=90;strokeWidth=2;fontFamily=Comic Sans MS;" parent="1" vertex="1">
          <mxGeometry x="530" y="2570" width="20" height="360" as="geometry" />
        </mxCell>
        <mxCell id="HMn--_Nn2pT3gd7UrFBs-18" value="&lt;b&gt;和为 sum&lt;/b&gt;" style="text;html=1;align=center;verticalAlign=middle;resizable=0;points=[];autosize=1;strokeColor=none;fillColor=none;fontFamily=Comic Sans MS;" parent="1" vertex="1">
          <mxGeometry x="505" y="2710" width="70" height="30" as="geometry" />
        </mxCell>
        <mxCell id="HMn--_Nn2pT3gd7UrFBs-19" value="&lt;b&gt;实际上就是找到两个区间，使其和为 a + b = x 即可&lt;br&gt;这又等价为寻找中间的区间，使其和为 sum - x 即可&lt;br&gt;因此又变成了滑动窗口问题，只要让中间区域最长且和为 sum 即可&lt;br&gt;&lt;/b&gt;" style="text;html=1;align=center;verticalAlign=middle;resizable=0;points=[];autosize=1;strokeColor=none;fillColor=none;fontFamily=Comic Sans MS;" parent="1" vertex="1">
          <mxGeometry x="350" y="2850" width="380" height="60" as="geometry" />
        </mxCell>
        <mxCell id="HMn--_Nn2pT3gd7UrFBs-20" value="" style="whiteSpace=wrap;html=1;strokeWidth=2;fillColor=#e3c800;fontColor=#000000;strokeColor=#B09500;fontFamily=Comic Sans MS;" parent="1" vertex="1">
          <mxGeometry x="360" y="3040" width="40" height="40" as="geometry" />
        </mxCell>
        <mxCell id="HMn--_Nn2pT3gd7UrFBs-21" value="" style="whiteSpace=wrap;html=1;strokeWidth=2;fillColor=#e3c800;fontColor=#000000;strokeColor=#B09500;fontFamily=Comic Sans MS;" parent="1" vertex="1">
          <mxGeometry x="400" y="3040" width="40" height="40" as="geometry" />
        </mxCell>
        <mxCell id="HMn--_Nn2pT3gd7UrFBs-22" value="" style="whiteSpace=wrap;html=1;strokeWidth=2;fillColor=#e3c800;fontColor=#000000;strokeColor=#B09500;fontFamily=Comic Sans MS;" parent="1" vertex="1">
          <mxGeometry x="440" y="3040" width="40" height="40" as="geometry" />
        </mxCell>
        <mxCell id="HMn--_Nn2pT3gd7UrFBs-23" value="" style="whiteSpace=wrap;html=1;strokeWidth=2;fillColor=#e3c800;fontColor=#000000;strokeColor=#B09500;fontFamily=Comic Sans MS;" parent="1" vertex="1">
          <mxGeometry x="480" y="3040" width="40" height="40" as="geometry" />
        </mxCell>
        <mxCell id="HMn--_Nn2pT3gd7UrFBs-25" value="" style="whiteSpace=wrap;html=1;strokeWidth=2;fillColor=#647687;fontColor=#ffffff;strokeColor=#314354;fontFamily=Comic Sans MS;" parent="1" vertex="1">
          <mxGeometry x="560" y="3040" width="40" height="40" as="geometry" />
        </mxCell>
        <mxCell id="HMn--_Nn2pT3gd7UrFBs-26" value="" style="whiteSpace=wrap;html=1;strokeWidth=2;fillColor=#647687;fontColor=#ffffff;strokeColor=#314354;fontFamily=Comic Sans MS;" parent="1" vertex="1">
          <mxGeometry x="600" y="3040" width="40" height="40" as="geometry" />
        </mxCell>
        <mxCell id="HMn--_Nn2pT3gd7UrFBs-27" value="" style="whiteSpace=wrap;html=1;strokeWidth=2;fillColor=#647687;fontColor=#ffffff;strokeColor=#314354;fontFamily=Comic Sans MS;" parent="1" vertex="1">
          <mxGeometry x="680" y="3040" width="40" height="40" as="geometry" />
        </mxCell>
        <mxCell id="HMn--_Nn2pT3gd7UrFBs-28" value="" style="whiteSpace=wrap;html=1;strokeWidth=2;fillColor=#647687;fontColor=#ffffff;strokeColor=#314354;fontFamily=Comic Sans MS;" parent="1" vertex="1">
          <mxGeometry x="640" y="3040" width="40" height="40" as="geometry" />
        </mxCell>
        <mxCell id="HMn--_Nn2pT3gd7UrFBs-29" value="" style="edgeStyle=none;orthogonalLoop=1;jettySize=auto;html=1;rounded=0;entryX=0.5;entryY=1;entryDx=0;entryDy=0;fontStyle=1;strokeWidth=2;fontFamily=Comic Sans MS;" parent="1" edge="1">
          <mxGeometry width="100" relative="1" as="geometry">
            <mxPoint x="380" y="3120" as="sourcePoint" />
            <mxPoint x="380" y="3080" as="targetPoint" />
            <Array as="points" />
          </mxGeometry>
        </mxCell>
        <mxCell id="HMn--_Nn2pT3gd7UrFBs-30" value="&lt;b&gt;left&lt;br&gt;&lt;/b&gt;" style="text;html=1;align=center;verticalAlign=middle;resizable=0;points=[];autosize=1;strokeColor=none;fillColor=none;fontFamily=Comic Sans MS;" parent="1" vertex="1">
          <mxGeometry x="390" y="3090" width="50" height="30" as="geometry" />
        </mxCell>
        <mxCell id="HMn--_Nn2pT3gd7UrFBs-31" value="&lt;b&gt;right&lt;br&gt;&lt;/b&gt;" style="text;html=1;align=center;verticalAlign=middle;resizable=0;points=[];autosize=1;strokeColor=none;fillColor=none;fontFamily=Comic Sans MS;" parent="1" vertex="1">
          <mxGeometry x="550" y="3000" width="50" height="30" as="geometry" />
        </mxCell>
        <mxCell id="HMn--_Nn2pT3gd7UrFBs-32" value="" style="edgeStyle=none;orthogonalLoop=1;jettySize=auto;html=1;rounded=0;entryX=0.5;entryY=0;entryDx=0;entryDy=0;fontStyle=1;strokeWidth=2;fontFamily=Comic Sans MS;" parent="1" edge="1">
          <mxGeometry width="100" relative="1" as="geometry">
            <mxPoint x="540" y="3000" as="sourcePoint" />
            <mxPoint x="540" y="3040" as="targetPoint" />
            <Array as="points" />
          </mxGeometry>
        </mxCell>
        <mxCell id="HMn--_Nn2pT3gd7UrFBs-33" value="" style="whiteSpace=wrap;html=1;strokeWidth=2;fillColor=#647687;fontColor=#ffffff;strokeColor=#314354;fontFamily=Comic Sans MS;" parent="1" vertex="1">
          <mxGeometry x="360" y="3200" width="40" height="40" as="geometry" />
        </mxCell>
        <mxCell id="HMn--_Nn2pT3gd7UrFBs-34" value="" style="whiteSpace=wrap;html=1;strokeWidth=2;fillColor=#e3c800;fontColor=#000000;strokeColor=#B09500;fontFamily=Comic Sans MS;" parent="1" vertex="1">
          <mxGeometry x="400" y="3200" width="40" height="40" as="geometry" />
        </mxCell>
        <mxCell id="HMn--_Nn2pT3gd7UrFBs-35" value="" style="whiteSpace=wrap;html=1;strokeWidth=2;fillColor=#e3c800;fontColor=#000000;strokeColor=#B09500;fontFamily=Comic Sans MS;" parent="1" vertex="1">
          <mxGeometry x="440" y="3200" width="40" height="40" as="geometry" />
        </mxCell>
        <mxCell id="HMn--_Nn2pT3gd7UrFBs-36" value="" style="whiteSpace=wrap;html=1;strokeWidth=2;fillColor=#e3c800;fontColor=#000000;strokeColor=#B09500;fontFamily=Comic Sans MS;" parent="1" vertex="1">
          <mxGeometry x="480" y="3200" width="40" height="40" as="geometry" />
        </mxCell>
        <mxCell id="HMn--_Nn2pT3gd7UrFBs-37" value="" style="whiteSpace=wrap;html=1;strokeWidth=2;fillColor=#e3c800;fontColor=#000000;strokeColor=#B09500;fontFamily=Comic Sans MS;" parent="1" vertex="1">
          <mxGeometry x="520" y="3200" width="40" height="40" as="geometry" />
        </mxCell>
        <mxCell id="HMn--_Nn2pT3gd7UrFBs-39" value="" style="whiteSpace=wrap;html=1;strokeWidth=2;fillColor=#647687;fontColor=#ffffff;strokeColor=#314354;fontFamily=Comic Sans MS;" parent="1" vertex="1">
          <mxGeometry x="600" y="3200" width="40" height="40" as="geometry" />
        </mxCell>
        <mxCell id="HMn--_Nn2pT3gd7UrFBs-40" value="" style="whiteSpace=wrap;html=1;strokeWidth=2;fillColor=#647687;fontColor=#ffffff;strokeColor=#314354;fontFamily=Comic Sans MS;" parent="1" vertex="1">
          <mxGeometry x="680" y="3200" width="40" height="40" as="geometry" />
        </mxCell>
        <mxCell id="HMn--_Nn2pT3gd7UrFBs-41" value="" style="whiteSpace=wrap;html=1;strokeWidth=2;fillColor=#647687;fontColor=#ffffff;strokeColor=#314354;fontFamily=Comic Sans MS;" parent="1" vertex="1">
          <mxGeometry x="640" y="3200" width="40" height="40" as="geometry" />
        </mxCell>
        <mxCell id="HMn--_Nn2pT3gd7UrFBs-42" value="" style="edgeStyle=none;orthogonalLoop=1;jettySize=auto;html=1;rounded=0;entryX=0.5;entryY=1;entryDx=0;entryDy=0;fontStyle=1;strokeWidth=2;fontFamily=Comic Sans MS;" parent="1" edge="1">
          <mxGeometry width="100" relative="1" as="geometry">
            <mxPoint x="420" y="3280" as="sourcePoint" />
            <mxPoint x="420" y="3240" as="targetPoint" />
            <Array as="points" />
          </mxGeometry>
        </mxCell>
        <mxCell id="HMn--_Nn2pT3gd7UrFBs-43" value="&lt;b&gt;left&lt;br&gt;&lt;/b&gt;" style="text;html=1;align=center;verticalAlign=middle;resizable=0;points=[];autosize=1;strokeColor=none;fillColor=none;fontFamily=Comic Sans MS;" parent="1" vertex="1">
          <mxGeometry x="430" y="3250" width="50" height="30" as="geometry" />
        </mxCell>
        <mxCell id="HMn--_Nn2pT3gd7UrFBs-44" value="&lt;b&gt;right&lt;br&gt;&lt;/b&gt;" style="text;html=1;align=center;verticalAlign=middle;resizable=0;points=[];autosize=1;strokeColor=none;fillColor=none;fontFamily=Comic Sans MS;" parent="1" vertex="1">
          <mxGeometry x="590" y="3160" width="50" height="30" as="geometry" />
        </mxCell>
        <mxCell id="HMn--_Nn2pT3gd7UrFBs-45" value="" style="edgeStyle=none;orthogonalLoop=1;jettySize=auto;html=1;rounded=0;entryX=0.5;entryY=0;entryDx=0;entryDy=0;fontStyle=1;strokeWidth=2;fontFamily=Comic Sans MS;" parent="1" edge="1">
          <mxGeometry width="100" relative="1" as="geometry">
            <mxPoint x="580" y="3160" as="sourcePoint" />
            <mxPoint x="580" y="3200" as="targetPoint" />
            <Array as="points" />
          </mxGeometry>
        </mxCell>
        <mxCell id="HMn--_Nn2pT3gd7UrFBs-46" value="&lt;b&gt;1. 通过滑动窗口，就可以找到一段区间，其和保持 &amp;gt; target&lt;br&gt;&lt;/b&gt;" style="text;html=1;align=center;verticalAlign=middle;resizable=0;points=[];autosize=1;strokeColor=none;fillColor=none;fontFamily=Comic Sans MS;" parent="1" vertex="1">
          <mxGeometry x="350" y="2950" width="350" height="30" as="geometry" />
        </mxCell>
        <mxCell id="HMn--_Nn2pT3gd7UrFBs-47" value="&lt;b&gt;2. 移动窗口，如果出现区间相等的情况，&lt;br&gt;&lt;br&gt;&lt;/b&gt;" style="text;html=1;align=center;verticalAlign=middle;resizable=0;points=[];autosize=1;strokeColor=none;fillColor=none;fontFamily=Comic Sans MS;" parent="1" vertex="1">
          <mxGeometry x="475" y="3120" width="250" height="40" as="geometry" />
        </mxCell>
        <mxCell id="HMn--_Nn2pT3gd7UrFBs-24" value="" style="whiteSpace=wrap;html=1;strokeWidth=2;fillColor=#e3c800;fontColor=#000000;strokeColor=#B09500;fontFamily=Comic Sans MS;" parent="1" vertex="1">
          <mxGeometry x="520" y="3040" width="40" height="40" as="geometry" />
        </mxCell>
        <mxCell id="HMn--_Nn2pT3gd7UrFBs-38" value="" style="whiteSpace=wrap;html=1;strokeWidth=2;fillColor=#e3c800;fontColor=#000000;strokeColor=#B09500;fontFamily=Comic Sans MS;" parent="1" vertex="1">
          <mxGeometry x="560" y="3200" width="40" height="40" as="geometry" />
        </mxCell>
        <mxCell id="HMn--_Nn2pT3gd7UrFBs-48" value="&lt;b&gt;4. 移动窗口，如果出现区间和变大的情况，&lt;br&gt;就继续 right++ 和 left++，直到遇到情况 2 或 3&lt;br&gt;&lt;/b&gt;" style="text;html=1;align=center;verticalAlign=middle;resizable=0;points=[];autosize=1;strokeColor=none;fillColor=none;fontFamily=Comic Sans MS;" parent="1" vertex="1">
          <mxGeometry x="390" y="3340" width="290" height="40" as="geometry" />
        </mxCell>
        <mxCell id="HMn--_Nn2pT3gd7UrFBs-49" value="&lt;b&gt;3.&amp;nbsp;&lt;/b&gt;&lt;b&gt;移动窗口，如果出现区间和变小的情况，&lt;br&gt;就继续 right++，直到不小于 target&lt;/b&gt;&lt;b&gt;&lt;br&gt;&lt;/b&gt;" style="text;html=1;align=center;verticalAlign=middle;resizable=0;points=[];autosize=1;strokeColor=none;fillColor=none;fontFamily=Comic Sans MS;" parent="1" vertex="1">
          <mxGeometry x="485" y="3270" width="260" height="40" as="geometry" />
        </mxCell>
        <mxCell id="Gk1yaJDq60hjncGTLqpT-2" style="rounded=0;orthogonalLoop=1;jettySize=auto;html=1;exitX=0.75;exitY=0;exitDx=0;exitDy=0;strokeWidth=3;fillColor=#a20025;strokeColor=#6F0000;fontFamily=Comic Sans MS;" parent="1" source="IptE70Cl41YrFZPhkl_w-36" edge="1">
          <mxGeometry relative="1" as="geometry">
            <mxPoint x="880" y="1920" as="targetPoint" />
            <Array as="points">
              <mxPoint x="430" y="1750" />
              <mxPoint x="550" y="1730" />
            </Array>
            <mxPoint x="250" y="1750" as="sourcePoint" />
          </mxGeometry>
        </mxCell>
        <mxCell id="Gk1yaJDq60hjncGTLqpT-3" value="4" style="edgeLabel;html=1;align=center;verticalAlign=middle;resizable=0;points=[];fontStyle=1;fontFamily=Comic Sans MS;fontSize=20;" parent="Gk1yaJDq60hjncGTLqpT-2" vertex="1" connectable="0">
          <mxGeometry x="0.5686" y="3" relative="1" as="geometry">
            <mxPoint as="offset" />
          </mxGeometry>
        </mxCell>
        <mxCell id="Gk1yaJDq60hjncGTLqpT-4" value="" style="rounded=1;whiteSpace=wrap;html=1;strokeWidth=3;fontFamily=Comic Sans MS;" parent="1" vertex="1">
          <mxGeometry x="560" y="2080" width="80" height="40" as="geometry" />
        </mxCell>
        <mxCell id="Gk1yaJDq60hjncGTLqpT-5" value="" style="rounded=1;whiteSpace=wrap;html=1;strokeWidth=3;fontFamily=Comic Sans MS;" parent="1" vertex="1">
          <mxGeometry x="520" y="2120" width="160" height="40" as="geometry" />
        </mxCell>
        <mxCell id="Gk1yaJDq60hjncGTLqpT-6" value="" style="rounded=1;whiteSpace=wrap;html=1;strokeWidth=3;fontFamily=Comic Sans MS;" parent="1" vertex="1">
          <mxGeometry x="760" y="2120" width="240" height="40" as="geometry" />
        </mxCell>
        <mxCell id="Gk1yaJDq60hjncGTLqpT-7" value="" style="endArrow=none;html=1;rounded=0;strokeWidth=3;fontFamily=Comic Sans MS;" parent="1" edge="1">
          <mxGeometry width="50" height="50" relative="1" as="geometry">
            <mxPoint x="320" y="2160" as="sourcePoint" />
            <mxPoint x="320" y="1960" as="targetPoint" />
          </mxGeometry>
        </mxCell>
        <mxCell id="Gk1yaJDq60hjncGTLqpT-8" value="" style="endArrow=none;html=1;rounded=0;strokeWidth=3;fontFamily=Comic Sans MS;" parent="1" edge="1">
          <mxGeometry width="50" height="50" relative="1" as="geometry">
            <mxPoint x="600" y="2160" as="sourcePoint" />
            <mxPoint x="600" y="1960" as="targetPoint" />
          </mxGeometry>
        </mxCell>
        <mxCell id="Gk1yaJDq60hjncGTLqpT-9" value="" style="endArrow=none;html=1;rounded=0;strokeWidth=3;fontFamily=Comic Sans MS;" parent="1" edge="1">
          <mxGeometry width="50" height="50" relative="1" as="geometry">
            <mxPoint x="880" y="2160" as="sourcePoint" />
            <mxPoint x="880" y="1960" as="targetPoint" />
          </mxGeometry>
        </mxCell>
        <mxCell id="Gk1yaJDq60hjncGTLqpT-12" style="rounded=0;orthogonalLoop=1;jettySize=auto;html=1;strokeWidth=3;fillColor=#a20025;strokeColor=#6F0000;fontFamily=Comic Sans MS;exitX=0.25;exitY=0;exitDx=0;exitDy=0;" parent="1" source="Gk1yaJDq60hjncGTLqpT-4" edge="1">
          <mxGeometry relative="1" as="geometry">
            <mxPoint x="320" y="2160" as="targetPoint" />
            <Array as="points">
              <mxPoint x="500" y="1990" />
              <mxPoint x="410" y="2000" />
            </Array>
            <mxPoint x="600" y="2080" as="sourcePoint" />
          </mxGeometry>
        </mxCell>
        <mxCell id="Gk1yaJDq60hjncGTLqpT-13" value="5" style="edgeLabel;html=1;align=center;verticalAlign=middle;resizable=0;points=[];fontFamily=Comic Sans MS;fontStyle=1;fontSize=20;" parent="Gk1yaJDq60hjncGTLqpT-12" vertex="1" connectable="0">
          <mxGeometry x="-0.0272" y="5" relative="1" as="geometry">
            <mxPoint x="-23" as="offset" />
          </mxGeometry>
        </mxCell>
        <mxCell id="Gk1yaJDq60hjncGTLqpT-14" style="rounded=0;orthogonalLoop=1;jettySize=auto;html=1;strokeWidth=3;fillColor=#a20025;strokeColor=#6F0000;fontFamily=Comic Sans MS;exitX=1;exitY=0;exitDx=0;exitDy=0;entryX=0.25;entryY=0;entryDx=0;entryDy=0;" parent="1" source="Gk1yaJDq60hjncGTLqpT-5" target="Gk1yaJDq60hjncGTLqpT-6" edge="1">
          <mxGeometry relative="1" as="geometry">
            <mxPoint x="320" y="2160" as="targetPoint" />
            <Array as="points">
              <mxPoint x="700" y="2070" />
              <mxPoint x="770" y="2050" />
            </Array>
            <mxPoint x="610" y="2090" as="sourcePoint" />
          </mxGeometry>
        </mxCell>
        <mxCell id="Gk1yaJDq60hjncGTLqpT-15" value="6" style="edgeLabel;html=1;align=center;verticalAlign=middle;resizable=0;points=[];fontFamily=Comic Sans MS;fontStyle=1;fontSize=20;" parent="Gk1yaJDq60hjncGTLqpT-14" vertex="1" connectable="0">
          <mxGeometry x="-0.0272" y="5" relative="1" as="geometry">
            <mxPoint x="-23" as="offset" />
          </mxGeometry>
        </mxCell>
        <mxCell id="Gk1yaJDq60hjncGTLqpT-16" value="" style="rounded=1;whiteSpace=wrap;html=1;strokeWidth=3;fontFamily=Comic Sans MS;" parent="1" vertex="1">
          <mxGeometry x="280" y="2360" width="80" height="40" as="geometry" />
        </mxCell>
        <mxCell id="Gk1yaJDq60hjncGTLqpT-17" value="" style="rounded=1;whiteSpace=wrap;html=1;strokeWidth=3;fontFamily=Comic Sans MS;" parent="1" vertex="1">
          <mxGeometry x="800" y="2320" width="160" height="40" as="geometry" />
        </mxCell>
        <mxCell id="Gk1yaJDq60hjncGTLqpT-18" value="" style="rounded=1;whiteSpace=wrap;html=1;strokeWidth=3;fontFamily=Comic Sans MS;" parent="1" vertex="1">
          <mxGeometry x="760" y="2360" width="240" height="40" as="geometry" />
        </mxCell>
        <mxCell id="Gk1yaJDq60hjncGTLqpT-19" value="" style="endArrow=none;html=1;rounded=0;strokeWidth=3;fontFamily=Comic Sans MS;" parent="1" edge="1">
          <mxGeometry width="50" height="50" relative="1" as="geometry">
            <mxPoint x="320" y="2400" as="sourcePoint" />
            <mxPoint x="320" y="2200" as="targetPoint" />
          </mxGeometry>
        </mxCell>
        <mxCell id="Gk1yaJDq60hjncGTLqpT-20" value="" style="endArrow=none;html=1;rounded=0;strokeWidth=3;fontFamily=Comic Sans MS;" parent="1" edge="1">
          <mxGeometry width="50" height="50" relative="1" as="geometry">
            <mxPoint x="600" y="2400" as="sourcePoint" />
            <mxPoint x="600" y="2200" as="targetPoint" />
          </mxGeometry>
        </mxCell>
        <mxCell id="Gk1yaJDq60hjncGTLqpT-21" value="" style="endArrow=none;html=1;rounded=0;strokeWidth=3;fontFamily=Comic Sans MS;" parent="1" edge="1">
          <mxGeometry width="50" height="50" relative="1" as="geometry">
            <mxPoint x="880" y="2400" as="sourcePoint" />
            <mxPoint x="880" y="2200" as="targetPoint" />
          </mxGeometry>
        </mxCell>
        <mxCell id="Gk1yaJDq60hjncGTLqpT-24" style="rounded=0;orthogonalLoop=1;jettySize=auto;html=1;strokeWidth=3;fillColor=#a20025;strokeColor=#6F0000;fontFamily=Comic Sans MS;exitX=0.75;exitY=0;exitDx=0;exitDy=0;entryX=0.5;entryY=0;entryDx=0;entryDy=0;" parent="1" source="Gk1yaJDq60hjncGTLqpT-16" target="Gk1yaJDq60hjncGTLqpT-17" edge="1">
          <mxGeometry relative="1" as="geometry">
            <mxPoint x="320" y="2400" as="targetPoint" />
            <Array as="points">
              <mxPoint x="680" y="2250" />
              <mxPoint x="790" y="2260" />
            </Array>
            <mxPoint x="610" y="2330" as="sourcePoint" />
          </mxGeometry>
        </mxCell>
        <mxCell id="Gk1yaJDq60hjncGTLqpT-25" value="7" style="edgeLabel;html=1;align=center;verticalAlign=middle;resizable=0;points=[];fontFamily=Comic Sans MS;fontStyle=1;fontSize=20;" parent="Gk1yaJDq60hjncGTLqpT-24" vertex="1" connectable="0">
          <mxGeometry x="-0.0272" y="5" relative="1" as="geometry">
            <mxPoint x="-55" y="11" as="offset" />
          </mxGeometry>
        </mxCell>
        <mxCell id="Gk1yaJDq60hjncGTLqpT-26" value="" style="rounded=1;whiteSpace=wrap;html=1;strokeWidth=3;fontFamily=Comic Sans MS;" parent="1" vertex="1">
          <mxGeometry x="840" y="2520" width="80" height="40" as="geometry" />
        </mxCell>
        <mxCell id="Gk1yaJDq60hjncGTLqpT-27" value="" style="rounded=1;whiteSpace=wrap;html=1;strokeWidth=3;fontFamily=Comic Sans MS;" parent="1" vertex="1">
          <mxGeometry x="800" y="2560" width="160" height="40" as="geometry" />
        </mxCell>
        <mxCell id="Gk1yaJDq60hjncGTLqpT-28" value="" style="rounded=1;whiteSpace=wrap;html=1;strokeWidth=3;fontFamily=Comic Sans MS;" parent="1" vertex="1">
          <mxGeometry x="760" y="2600" width="240" height="40" as="geometry" />
        </mxCell>
        <mxCell id="Gk1yaJDq60hjncGTLqpT-29" value="" style="endArrow=none;html=1;rounded=0;strokeWidth=3;fontFamily=Comic Sans MS;" parent="1" edge="1">
          <mxGeometry width="50" height="50" relative="1" as="geometry">
            <mxPoint x="320" y="2640" as="sourcePoint" />
            <mxPoint x="320" y="2440" as="targetPoint" />
          </mxGeometry>
        </mxCell>
        <mxCell id="Gk1yaJDq60hjncGTLqpT-30" value="" style="endArrow=none;html=1;rounded=0;strokeWidth=3;fontFamily=Comic Sans MS;" parent="1" edge="1">
          <mxGeometry width="50" height="50" relative="1" as="geometry">
            <mxPoint x="600" y="2640" as="sourcePoint" />
            <mxPoint x="600" y="2440" as="targetPoint" />
          </mxGeometry>
        </mxCell>
        <mxCell id="Gk1yaJDq60hjncGTLqpT-31" value="" style="endArrow=none;html=1;rounded=0;strokeWidth=3;fontFamily=Comic Sans MS;" parent="1" edge="1">
          <mxGeometry width="50" height="50" relative="1" as="geometry">
            <mxPoint x="880" y="2640" as="sourcePoint" />
            <mxPoint x="880" y="2440" as="targetPoint" />
          </mxGeometry>
        </mxCell>
        <mxCell id="pGcrkfZ3z-2yp8zZS3SY-1" value="1" style="whiteSpace=wrap;html=1;strokeWidth=2;fillColor=#a20025;fontColor=#ffffff;strokeColor=#6F0000;fontFamily=Comic Sans MS;sketch=1;curveFitting=1;jiggle=2;" parent="1" vertex="1">
          <mxGeometry x="-720" y="2920" width="40" height="40" as="geometry" />
        </mxCell>
        <mxCell id="pGcrkfZ3z-2yp8zZS3SY-2" value="2" style="whiteSpace=wrap;html=1;strokeWidth=2;fillColor=#a20025;fontColor=#ffffff;strokeColor=#6F0000;fontFamily=Comic Sans MS;sketch=1;curveFitting=1;jiggle=2;" parent="1" vertex="1">
          <mxGeometry x="-680" y="2920" width="40" height="40" as="geometry" />
        </mxCell>
        <mxCell id="pGcrkfZ3z-2yp8zZS3SY-6" value="3" style="whiteSpace=wrap;html=1;strokeWidth=2;fillColor=#0050ef;fontColor=#ffffff;strokeColor=#001DBC;fontFamily=Comic Sans MS;sketch=1;curveFitting=1;jiggle=2;" parent="1" vertex="1">
          <mxGeometry x="-600" y="2920" width="40" height="40" as="geometry" />
        </mxCell>
        <mxCell id="pGcrkfZ3z-2yp8zZS3SY-7" value="3" style="whiteSpace=wrap;html=1;strokeWidth=2;fillColor=#0050ef;fontColor=#ffffff;strokeColor=#001DBC;fontFamily=Comic Sans MS;sketch=1;curveFitting=1;jiggle=2;" parent="1" vertex="1">
          <mxGeometry x="-560" y="2920" width="40" height="40" as="geometry" />
        </mxCell>
        <mxCell id="pGcrkfZ3z-2yp8zZS3SY-8" value="4" style="whiteSpace=wrap;html=1;strokeWidth=2;fillColor=#0050ef;fontColor=#ffffff;strokeColor=#001DBC;fontFamily=Comic Sans MS;sketch=1;curveFitting=1;jiggle=2;" parent="1" vertex="1">
          <mxGeometry x="-520" y="2920" width="40" height="40" as="geometry" />
        </mxCell>
        <mxCell id="pGcrkfZ3z-2yp8zZS3SY-13" value="&lt;font face=&quot;Comic Sans MS&quot;&gt;left&lt;/font&gt;" style="text;html=1;align=center;verticalAlign=middle;resizable=0;points=[];autosize=1;strokeColor=none;fillColor=none;" parent="1" vertex="1">
          <mxGeometry x="-725" y="2890" width="50" height="30" as="geometry" />
        </mxCell>
        <mxCell id="pGcrkfZ3z-2yp8zZS3SY-14" value="&lt;font face=&quot;Comic Sans MS&quot;&gt;right&lt;/font&gt;" style="text;html=1;align=center;verticalAlign=middle;resizable=0;points=[];autosize=1;strokeColor=none;fillColor=none;" parent="1" vertex="1">
          <mxGeometry x="-530" y="2890" width="50" height="30" as="geometry" />
        </mxCell>
        <mxCell id="pGcrkfZ3z-2yp8zZS3SY-24" value="&lt;font face=&quot;Comic Sans MS&quot;&gt;[0]&lt;/font&gt;" style="text;html=1;align=center;verticalAlign=middle;resizable=0;points=[];autosize=1;strokeColor=none;fillColor=none;" parent="1" vertex="1">
          <mxGeometry x="-720" y="2960" width="40" height="30" as="geometry" />
        </mxCell>
        <mxCell id="pGcrkfZ3z-2yp8zZS3SY-25" value="&lt;font face=&quot;Comic Sans MS&quot;&gt;[1]&lt;/font&gt;" style="text;html=1;align=center;verticalAlign=middle;resizable=0;points=[];autosize=1;strokeColor=none;fillColor=none;" parent="1" vertex="1">
          <mxGeometry x="-680" y="2960" width="40" height="30" as="geometry" />
        </mxCell>
        <mxCell id="pGcrkfZ3z-2yp8zZS3SY-26" value="&lt;font face=&quot;Comic Sans MS&quot;&gt;[2]&lt;/font&gt;" style="text;html=1;align=center;verticalAlign=middle;resizable=0;points=[];autosize=1;strokeColor=none;fillColor=none;" parent="1" vertex="1">
          <mxGeometry x="-640" y="2960" width="40" height="30" as="geometry" />
        </mxCell>
        <mxCell id="pGcrkfZ3z-2yp8zZS3SY-27" value="&lt;font face=&quot;Comic Sans MS&quot;&gt;[3]&lt;/font&gt;" style="text;html=1;align=center;verticalAlign=middle;resizable=0;points=[];autosize=1;strokeColor=none;fillColor=none;" parent="1" vertex="1">
          <mxGeometry x="-600" y="2960" width="40" height="30" as="geometry" />
        </mxCell>
        <mxCell id="pGcrkfZ3z-2yp8zZS3SY-28" value="&lt;font face=&quot;Comic Sans MS&quot;&gt;[4]&lt;/font&gt;" style="text;html=1;align=center;verticalAlign=middle;resizable=0;points=[];autosize=1;strokeColor=none;fillColor=none;" parent="1" vertex="1">
          <mxGeometry x="-560" y="2960" width="40" height="30" as="geometry" />
        </mxCell>
        <mxCell id="pGcrkfZ3z-2yp8zZS3SY-55" value="2" style="whiteSpace=wrap;html=1;strokeWidth=2;fillColor=#a20025;fontColor=#ffffff;strokeColor=#6F0000;fontFamily=Comic Sans MS;sketch=1;curveFitting=1;jiggle=2;" parent="1" vertex="1">
          <mxGeometry x="-640" y="2920" width="40" height="40" as="geometry" />
        </mxCell>
        <mxCell id="pGcrkfZ3z-2yp8zZS3SY-56" value="&lt;font face=&quot;Comic Sans MS&quot;&gt;[5]&lt;/font&gt;" style="text;html=1;align=center;verticalAlign=middle;resizable=0;points=[];autosize=1;strokeColor=none;fillColor=none;" parent="1" vertex="1">
          <mxGeometry x="-520" y="2960" width="40" height="30" as="geometry" />
        </mxCell>
        <mxCell id="pGcrkfZ3z-2yp8zZS3SY-57" value="1" style="whiteSpace=wrap;html=1;strokeWidth=2;fillColor=#a20025;fontColor=#ffffff;strokeColor=#6F0000;fontFamily=Comic Sans MS;sketch=1;curveFitting=1;jiggle=2;" parent="1" vertex="1">
          <mxGeometry x="-720" y="3040" width="40" height="40" as="geometry" />
        </mxCell>
        <mxCell id="pGcrkfZ3z-2yp8zZS3SY-58" value="2" style="whiteSpace=wrap;html=1;strokeWidth=2;fillColor=#a20025;fontColor=#ffffff;strokeColor=#6F0000;fontFamily=Comic Sans MS;sketch=1;curveFitting=1;jiggle=2;" parent="1" vertex="1">
          <mxGeometry x="-680" y="3040" width="40" height="40" as="geometry" />
        </mxCell>
        <mxCell id="pGcrkfZ3z-2yp8zZS3SY-59" value="3" style="whiteSpace=wrap;html=1;strokeWidth=2;fillColor=#0050ef;fontColor=#ffffff;strokeColor=#001DBC;fontFamily=Comic Sans MS;sketch=1;curveFitting=1;jiggle=2;" parent="1" vertex="1">
          <mxGeometry x="-600" y="3040" width="40" height="40" as="geometry" />
        </mxCell>
        <mxCell id="pGcrkfZ3z-2yp8zZS3SY-60" value="3" style="whiteSpace=wrap;html=1;strokeWidth=2;fillColor=#0050ef;fontColor=#ffffff;strokeColor=#001DBC;fontFamily=Comic Sans MS;sketch=1;curveFitting=1;jiggle=2;" parent="1" vertex="1">
          <mxGeometry x="-560" y="3040" width="40" height="40" as="geometry" />
        </mxCell>
        <mxCell id="pGcrkfZ3z-2yp8zZS3SY-61" value="4" style="whiteSpace=wrap;html=1;strokeWidth=2;fillColor=#0050ef;fontColor=#ffffff;strokeColor=#001DBC;fontFamily=Comic Sans MS;sketch=1;curveFitting=1;jiggle=2;" parent="1" vertex="1">
          <mxGeometry x="-520" y="3040" width="40" height="40" as="geometry" />
        </mxCell>
        <mxCell id="pGcrkfZ3z-2yp8zZS3SY-62" value="&lt;font face=&quot;Comic Sans MS&quot;&gt;left&lt;/font&gt;" style="text;html=1;align=center;verticalAlign=middle;resizable=0;points=[];autosize=1;strokeColor=none;fillColor=none;" parent="1" vertex="1">
          <mxGeometry x="-725" y="3010" width="50" height="30" as="geometry" />
        </mxCell>
        <mxCell id="pGcrkfZ3z-2yp8zZS3SY-63" value="&lt;font face=&quot;Comic Sans MS&quot;&gt;right&lt;/font&gt;" style="text;html=1;align=center;verticalAlign=middle;resizable=0;points=[];autosize=1;strokeColor=none;fillColor=none;" parent="1" vertex="1">
          <mxGeometry x="-525" y="3010" width="50" height="30" as="geometry" />
        </mxCell>
        <mxCell id="pGcrkfZ3z-2yp8zZS3SY-64" value="&lt;font face=&quot;Comic Sans MS&quot;&gt;[0]&lt;/font&gt;" style="text;html=1;align=center;verticalAlign=middle;resizable=0;points=[];autosize=1;strokeColor=none;fillColor=none;" parent="1" vertex="1">
          <mxGeometry x="-720" y="3080" width="40" height="30" as="geometry" />
        </mxCell>
        <mxCell id="pGcrkfZ3z-2yp8zZS3SY-65" value="&lt;font face=&quot;Comic Sans MS&quot;&gt;[1]&lt;/font&gt;" style="text;html=1;align=center;verticalAlign=middle;resizable=0;points=[];autosize=1;strokeColor=none;fillColor=none;" parent="1" vertex="1">
          <mxGeometry x="-680" y="3080" width="40" height="30" as="geometry" />
        </mxCell>
        <mxCell id="pGcrkfZ3z-2yp8zZS3SY-66" value="&lt;font face=&quot;Comic Sans MS&quot;&gt;[2]&lt;/font&gt;" style="text;html=1;align=center;verticalAlign=middle;resizable=0;points=[];autosize=1;strokeColor=none;fillColor=none;" parent="1" vertex="1">
          <mxGeometry x="-640" y="3080" width="40" height="30" as="geometry" />
        </mxCell>
        <mxCell id="pGcrkfZ3z-2yp8zZS3SY-67" value="&lt;font face=&quot;Comic Sans MS&quot;&gt;[3]&lt;/font&gt;" style="text;html=1;align=center;verticalAlign=middle;resizable=0;points=[];autosize=1;strokeColor=none;fillColor=none;" parent="1" vertex="1">
          <mxGeometry x="-600" y="3080" width="40" height="30" as="geometry" />
        </mxCell>
        <mxCell id="pGcrkfZ3z-2yp8zZS3SY-68" value="&lt;font face=&quot;Comic Sans MS&quot;&gt;[4]&lt;/font&gt;" style="text;html=1;align=center;verticalAlign=middle;resizable=0;points=[];autosize=1;strokeColor=none;fillColor=none;" parent="1" vertex="1">
          <mxGeometry x="-560" y="3080" width="40" height="30" as="geometry" />
        </mxCell>
        <mxCell id="pGcrkfZ3z-2yp8zZS3SY-69" value="2" style="whiteSpace=wrap;html=1;strokeWidth=2;fillColor=#a20025;fontColor=#ffffff;strokeColor=#6F0000;fontFamily=Comic Sans MS;sketch=1;curveFitting=1;jiggle=2;" parent="1" vertex="1">
          <mxGeometry x="-640" y="3040" width="40" height="40" as="geometry" />
        </mxCell>
        <mxCell id="pGcrkfZ3z-2yp8zZS3SY-70" value="&lt;font face=&quot;Comic Sans MS&quot;&gt;[5]&lt;/font&gt;" style="text;html=1;align=center;verticalAlign=middle;resizable=0;points=[];autosize=1;strokeColor=none;fillColor=none;" parent="1" vertex="1">
          <mxGeometry x="-520" y="3080" width="40" height="30" as="geometry" />
        </mxCell>
        <mxCell id="pGcrkfZ3z-2yp8zZS3SY-71" value="&lt;font face=&quot;Comic Sans MS&quot;&gt;middle&lt;/font&gt;" style="text;html=1;align=center;verticalAlign=middle;resizable=0;points=[];autosize=1;strokeColor=none;fillColor=none;" parent="1" vertex="1">
          <mxGeometry x="-650" y="3010" width="60" height="30" as="geometry" />
        </mxCell>
        <mxCell id="pGcrkfZ3z-2yp8zZS3SY-72" value="1" style="whiteSpace=wrap;html=1;strokeWidth=2;fillColor=#a20025;fontColor=#ffffff;strokeColor=#6F0000;fontFamily=Comic Sans MS;sketch=1;curveFitting=1;jiggle=2;" parent="1" vertex="1">
          <mxGeometry x="-720" y="3160" width="40" height="40" as="geometry" />
        </mxCell>
        <mxCell id="pGcrkfZ3z-2yp8zZS3SY-73" value="2" style="whiteSpace=wrap;html=1;strokeWidth=2;fillColor=#a20025;fontColor=#ffffff;strokeColor=#6F0000;fontFamily=Comic Sans MS;sketch=1;curveFitting=1;jiggle=2;" parent="1" vertex="1">
          <mxGeometry x="-680" y="3160" width="40" height="40" as="geometry" />
        </mxCell>
        <mxCell id="pGcrkfZ3z-2yp8zZS3SY-74" value="3" style="whiteSpace=wrap;html=1;strokeWidth=2;fillColor=#0050ef;fontColor=#ffffff;strokeColor=#001DBC;fontFamily=Comic Sans MS;sketch=1;curveFitting=1;jiggle=2;" parent="1" vertex="1">
          <mxGeometry x="-600" y="3160" width="40" height="40" as="geometry" />
        </mxCell>
        <mxCell id="pGcrkfZ3z-2yp8zZS3SY-75" value="3" style="whiteSpace=wrap;html=1;strokeWidth=2;fillColor=#0050ef;fontColor=#ffffff;strokeColor=#001DBC;fontFamily=Comic Sans MS;sketch=1;curveFitting=1;jiggle=2;" parent="1" vertex="1">
          <mxGeometry x="-560" y="3160" width="40" height="40" as="geometry" />
        </mxCell>
        <mxCell id="pGcrkfZ3z-2yp8zZS3SY-76" value="4" style="whiteSpace=wrap;html=1;strokeWidth=2;fillColor=#0050ef;fontColor=#ffffff;strokeColor=#001DBC;fontFamily=Comic Sans MS;sketch=1;curveFitting=1;jiggle=2;" parent="1" vertex="1">
          <mxGeometry x="-520" y="3160" width="40" height="40" as="geometry" />
        </mxCell>
        <mxCell id="pGcrkfZ3z-2yp8zZS3SY-77" value="&lt;font face=&quot;Comic Sans MS&quot;&gt;left&lt;/font&gt;" style="text;html=1;align=center;verticalAlign=middle;resizable=0;points=[];autosize=1;strokeColor=none;fillColor=none;" parent="1" vertex="1">
          <mxGeometry x="-605" y="3130" width="50" height="30" as="geometry" />
        </mxCell>
        <mxCell id="pGcrkfZ3z-2yp8zZS3SY-78" value="&lt;font face=&quot;Comic Sans MS&quot;&gt;right&lt;/font&gt;" style="text;html=1;align=center;verticalAlign=middle;resizable=0;points=[];autosize=1;strokeColor=none;fillColor=none;" parent="1" vertex="1">
          <mxGeometry x="-525" y="3130" width="50" height="30" as="geometry" />
        </mxCell>
        <mxCell id="pGcrkfZ3z-2yp8zZS3SY-79" value="&lt;font face=&quot;Comic Sans MS&quot;&gt;[0]&lt;/font&gt;" style="text;html=1;align=center;verticalAlign=middle;resizable=0;points=[];autosize=1;strokeColor=none;fillColor=none;" parent="1" vertex="1">
          <mxGeometry x="-720" y="3200" width="40" height="30" as="geometry" />
        </mxCell>
        <mxCell id="pGcrkfZ3z-2yp8zZS3SY-80" value="&lt;font face=&quot;Comic Sans MS&quot;&gt;[1]&lt;/font&gt;" style="text;html=1;align=center;verticalAlign=middle;resizable=0;points=[];autosize=1;strokeColor=none;fillColor=none;" parent="1" vertex="1">
          <mxGeometry x="-680" y="3200" width="40" height="30" as="geometry" />
        </mxCell>
        <mxCell id="pGcrkfZ3z-2yp8zZS3SY-81" value="&lt;font face=&quot;Comic Sans MS&quot;&gt;[2]&lt;/font&gt;" style="text;html=1;align=center;verticalAlign=middle;resizable=0;points=[];autosize=1;strokeColor=none;fillColor=none;" parent="1" vertex="1">
          <mxGeometry x="-640" y="3200" width="40" height="30" as="geometry" />
        </mxCell>
        <mxCell id="pGcrkfZ3z-2yp8zZS3SY-82" value="&lt;font face=&quot;Comic Sans MS&quot;&gt;[3]&lt;/font&gt;" style="text;html=1;align=center;verticalAlign=middle;resizable=0;points=[];autosize=1;strokeColor=none;fillColor=none;" parent="1" vertex="1">
          <mxGeometry x="-600" y="3200" width="40" height="30" as="geometry" />
        </mxCell>
        <mxCell id="pGcrkfZ3z-2yp8zZS3SY-83" value="&lt;font face=&quot;Comic Sans MS&quot;&gt;[4]&lt;/font&gt;" style="text;html=1;align=center;verticalAlign=middle;resizable=0;points=[];autosize=1;strokeColor=none;fillColor=none;" parent="1" vertex="1">
          <mxGeometry x="-560" y="3200" width="40" height="30" as="geometry" />
        </mxCell>
        <mxCell id="pGcrkfZ3z-2yp8zZS3SY-84" value="2" style="whiteSpace=wrap;html=1;strokeWidth=2;fillColor=#a20025;fontColor=#ffffff;strokeColor=#6F0000;fontFamily=Comic Sans MS;sketch=1;curveFitting=1;jiggle=2;" parent="1" vertex="1">
          <mxGeometry x="-640" y="3160" width="40" height="40" as="geometry" />
        </mxCell>
        <mxCell id="pGcrkfZ3z-2yp8zZS3SY-85" value="&lt;font face=&quot;Comic Sans MS&quot;&gt;[5]&lt;/font&gt;" style="text;html=1;align=center;verticalAlign=middle;resizable=0;points=[];autosize=1;strokeColor=none;fillColor=none;" parent="1" vertex="1">
          <mxGeometry x="-520" y="3200" width="40" height="30" as="geometry" />
        </mxCell>
        <mxCell id="pGcrkfZ3z-2yp8zZS3SY-86" value="&lt;font face=&quot;Comic Sans MS&quot;&gt;middle&lt;/font&gt;" style="text;html=1;align=center;verticalAlign=middle;resizable=0;points=[];autosize=1;strokeColor=none;fillColor=none;textOpacity=20;" parent="1" vertex="1">
          <mxGeometry x="-650" y="3130" width="60" height="30" as="geometry" />
        </mxCell>
        <mxCell id="pGcrkfZ3z-2yp8zZS3SY-88" value="1" style="whiteSpace=wrap;html=1;strokeWidth=2;fillColor=#a20025;fontColor=#ffffff;strokeColor=#6F0000;fontFamily=Comic Sans MS;sketch=1;curveFitting=1;jiggle=2;" parent="1" vertex="1">
          <mxGeometry x="-720" y="3280" width="40" height="40" as="geometry" />
        </mxCell>
        <mxCell id="pGcrkfZ3z-2yp8zZS3SY-89" value="2" style="whiteSpace=wrap;html=1;strokeWidth=2;fillColor=#a20025;fontColor=#ffffff;strokeColor=#6F0000;fontFamily=Comic Sans MS;sketch=1;curveFitting=1;jiggle=2;" parent="1" vertex="1">
          <mxGeometry x="-680" y="3280" width="40" height="40" as="geometry" />
        </mxCell>
        <mxCell id="pGcrkfZ3z-2yp8zZS3SY-90" value="3" style="whiteSpace=wrap;html=1;strokeWidth=2;fillColor=#0050ef;fontColor=#ffffff;strokeColor=#001DBC;fontFamily=Comic Sans MS;sketch=1;curveFitting=1;jiggle=2;" parent="1" vertex="1">
          <mxGeometry x="-600" y="3280" width="40" height="40" as="geometry" />
        </mxCell>
        <mxCell id="pGcrkfZ3z-2yp8zZS3SY-91" value="3" style="whiteSpace=wrap;html=1;strokeWidth=2;fillColor=#0050ef;fontColor=#ffffff;strokeColor=#001DBC;fontFamily=Comic Sans MS;sketch=1;curveFitting=1;jiggle=2;" parent="1" vertex="1">
          <mxGeometry x="-560" y="3280" width="40" height="40" as="geometry" />
        </mxCell>
        <mxCell id="pGcrkfZ3z-2yp8zZS3SY-92" value="4" style="whiteSpace=wrap;html=1;strokeWidth=2;fillColor=#0050ef;fontColor=#ffffff;strokeColor=#001DBC;fontFamily=Comic Sans MS;sketch=1;curveFitting=1;jiggle=2;" parent="1" vertex="1">
          <mxGeometry x="-520" y="3280" width="40" height="40" as="geometry" />
        </mxCell>
        <mxCell id="pGcrkfZ3z-2yp8zZS3SY-93" value="&lt;font face=&quot;Comic Sans MS&quot;&gt;left&lt;/font&gt;" style="text;html=1;align=center;verticalAlign=middle;resizable=0;points=[];autosize=1;strokeColor=none;fillColor=none;" parent="1" vertex="1">
          <mxGeometry x="-605" y="3250" width="50" height="30" as="geometry" />
        </mxCell>
        <mxCell id="pGcrkfZ3z-2yp8zZS3SY-94" value="&lt;font face=&quot;Comic Sans MS&quot;&gt;right&lt;/font&gt;" style="text;html=1;align=center;verticalAlign=middle;resizable=0;points=[];autosize=1;strokeColor=none;fillColor=none;" parent="1" vertex="1">
          <mxGeometry x="-525" y="3250" width="50" height="30" as="geometry" />
        </mxCell>
        <mxCell id="pGcrkfZ3z-2yp8zZS3SY-95" value="&lt;font face=&quot;Comic Sans MS&quot;&gt;[0]&lt;/font&gt;" style="text;html=1;align=center;verticalAlign=middle;resizable=0;points=[];autosize=1;strokeColor=none;fillColor=none;" parent="1" vertex="1">
          <mxGeometry x="-720" y="3320" width="40" height="30" as="geometry" />
        </mxCell>
        <mxCell id="pGcrkfZ3z-2yp8zZS3SY-96" value="&lt;font face=&quot;Comic Sans MS&quot;&gt;[1]&lt;/font&gt;" style="text;html=1;align=center;verticalAlign=middle;resizable=0;points=[];autosize=1;strokeColor=none;fillColor=none;" parent="1" vertex="1">
          <mxGeometry x="-680" y="3320" width="40" height="30" as="geometry" />
        </mxCell>
        <mxCell id="pGcrkfZ3z-2yp8zZS3SY-97" value="&lt;font face=&quot;Comic Sans MS&quot;&gt;[2]&lt;/font&gt;" style="text;html=1;align=center;verticalAlign=middle;resizable=0;points=[];autosize=1;strokeColor=none;fillColor=none;" parent="1" vertex="1">
          <mxGeometry x="-640" y="3320" width="40" height="30" as="geometry" />
        </mxCell>
        <mxCell id="pGcrkfZ3z-2yp8zZS3SY-98" value="&lt;font face=&quot;Comic Sans MS&quot;&gt;[3]&lt;/font&gt;" style="text;html=1;align=center;verticalAlign=middle;resizable=0;points=[];autosize=1;strokeColor=none;fillColor=none;" parent="1" vertex="1">
          <mxGeometry x="-600" y="3320" width="40" height="30" as="geometry" />
        </mxCell>
        <mxCell id="pGcrkfZ3z-2yp8zZS3SY-99" value="&lt;font face=&quot;Comic Sans MS&quot;&gt;[4]&lt;/font&gt;" style="text;html=1;align=center;verticalAlign=middle;resizable=0;points=[];autosize=1;strokeColor=none;fillColor=none;" parent="1" vertex="1">
          <mxGeometry x="-560" y="3320" width="40" height="30" as="geometry" />
        </mxCell>
        <mxCell id="pGcrkfZ3z-2yp8zZS3SY-100" value="2" style="whiteSpace=wrap;html=1;strokeWidth=2;fillColor=#a20025;fontColor=#ffffff;strokeColor=#6F0000;fontFamily=Comic Sans MS;sketch=1;curveFitting=1;jiggle=2;" parent="1" vertex="1">
          <mxGeometry x="-640" y="3280" width="40" height="40" as="geometry" />
        </mxCell>
        <mxCell id="pGcrkfZ3z-2yp8zZS3SY-101" value="&lt;font face=&quot;Comic Sans MS&quot;&gt;[5]&lt;/font&gt;" style="text;html=1;align=center;verticalAlign=middle;resizable=0;points=[];autosize=1;strokeColor=none;fillColor=none;" parent="1" vertex="1">
          <mxGeometry x="-520" y="3320" width="40" height="30" as="geometry" />
        </mxCell>
        <mxCell id="pGcrkfZ3z-2yp8zZS3SY-103" value="&lt;font face=&quot;Comic Sans MS&quot;&gt;middle&lt;/font&gt;" style="text;html=1;align=center;verticalAlign=middle;resizable=0;points=[];autosize=1;strokeColor=none;fillColor=none;" parent="1" vertex="1">
          <mxGeometry x="-570" y="3250" width="60" height="30" as="geometry" />
        </mxCell>
        <mxCell id="pGcrkfZ3z-2yp8zZS3SY-104" value="1" style="whiteSpace=wrap;html=1;strokeWidth=2;fillColor=#a20025;fontColor=#ffffff;strokeColor=#6F0000;fontFamily=Comic Sans MS;sketch=1;curveFitting=1;jiggle=2;" parent="1" vertex="1">
          <mxGeometry x="-720" y="3399" width="40" height="40" as="geometry" />
        </mxCell>
        <mxCell id="pGcrkfZ3z-2yp8zZS3SY-105" value="2" style="whiteSpace=wrap;html=1;strokeWidth=2;fillColor=#a20025;fontColor=#ffffff;strokeColor=#6F0000;fontFamily=Comic Sans MS;sketch=1;curveFitting=1;jiggle=2;" parent="1" vertex="1">
          <mxGeometry x="-680" y="3399" width="40" height="40" as="geometry" />
        </mxCell>
        <mxCell id="pGcrkfZ3z-2yp8zZS3SY-106" value="3" style="whiteSpace=wrap;html=1;strokeWidth=2;fillColor=#0050ef;fontColor=#ffffff;strokeColor=#001DBC;fontFamily=Comic Sans MS;sketch=1;curveFitting=1;jiggle=2;" parent="1" vertex="1">
          <mxGeometry x="-600" y="3399" width="40" height="40" as="geometry" />
        </mxCell>
        <mxCell id="pGcrkfZ3z-2yp8zZS3SY-107" value="3" style="whiteSpace=wrap;html=1;strokeWidth=2;fillColor=#0050ef;fontColor=#ffffff;strokeColor=#001DBC;fontFamily=Comic Sans MS;sketch=1;curveFitting=1;jiggle=2;" parent="1" vertex="1">
          <mxGeometry x="-560" y="3399" width="40" height="40" as="geometry" />
        </mxCell>
        <mxCell id="pGcrkfZ3z-2yp8zZS3SY-108" value="4" style="whiteSpace=wrap;html=1;strokeWidth=2;fillColor=#0050ef;fontColor=#ffffff;strokeColor=#001DBC;fontFamily=Comic Sans MS;sketch=1;curveFitting=1;jiggle=2;" parent="1" vertex="1">
          <mxGeometry x="-520" y="3399" width="40" height="40" as="geometry" />
        </mxCell>
        <mxCell id="pGcrkfZ3z-2yp8zZS3SY-109" value="&lt;font face=&quot;Comic Sans MS&quot;&gt;left&lt;/font&gt;" style="text;html=1;align=center;verticalAlign=middle;resizable=0;points=[];autosize=1;strokeColor=none;fillColor=none;" parent="1" vertex="1">
          <mxGeometry x="-605" y="3369" width="50" height="30" as="geometry" />
        </mxCell>
        <mxCell id="pGcrkfZ3z-2yp8zZS3SY-110" value="&lt;font face=&quot;Comic Sans MS&quot;&gt;right&lt;/font&gt;" style="text;html=1;align=center;verticalAlign=middle;resizable=0;points=[];autosize=1;strokeColor=none;fillColor=none;" parent="1" vertex="1">
          <mxGeometry x="-565" y="3369" width="50" height="30" as="geometry" />
        </mxCell>
        <mxCell id="pGcrkfZ3z-2yp8zZS3SY-111" value="&lt;font face=&quot;Comic Sans MS&quot;&gt;[0]&lt;/font&gt;" style="text;html=1;align=center;verticalAlign=middle;resizable=0;points=[];autosize=1;strokeColor=none;fillColor=none;" parent="1" vertex="1">
          <mxGeometry x="-720" y="3439" width="40" height="30" as="geometry" />
        </mxCell>
        <mxCell id="pGcrkfZ3z-2yp8zZS3SY-112" value="&lt;font face=&quot;Comic Sans MS&quot;&gt;[1]&lt;/font&gt;" style="text;html=1;align=center;verticalAlign=middle;resizable=0;points=[];autosize=1;strokeColor=none;fillColor=none;" parent="1" vertex="1">
          <mxGeometry x="-680" y="3439" width="40" height="30" as="geometry" />
        </mxCell>
        <mxCell id="pGcrkfZ3z-2yp8zZS3SY-113" value="&lt;font face=&quot;Comic Sans MS&quot;&gt;[2]&lt;/font&gt;" style="text;html=1;align=center;verticalAlign=middle;resizable=0;points=[];autosize=1;strokeColor=none;fillColor=none;" parent="1" vertex="1">
          <mxGeometry x="-640" y="3439" width="40" height="30" as="geometry" />
        </mxCell>
        <mxCell id="pGcrkfZ3z-2yp8zZS3SY-114" value="&lt;font face=&quot;Comic Sans MS&quot;&gt;[3]&lt;/font&gt;" style="text;html=1;align=center;verticalAlign=middle;resizable=0;points=[];autosize=1;strokeColor=none;fillColor=none;" parent="1" vertex="1">
          <mxGeometry x="-600" y="3439" width="40" height="30" as="geometry" />
        </mxCell>
        <mxCell id="pGcrkfZ3z-2yp8zZS3SY-115" value="&lt;font face=&quot;Comic Sans MS&quot;&gt;[4]&lt;/font&gt;" style="text;html=1;align=center;verticalAlign=middle;resizable=0;points=[];autosize=1;strokeColor=none;fillColor=none;" parent="1" vertex="1">
          <mxGeometry x="-560" y="3439" width="40" height="30" as="geometry" />
        </mxCell>
        <mxCell id="pGcrkfZ3z-2yp8zZS3SY-116" value="2" style="whiteSpace=wrap;html=1;strokeWidth=2;fillColor=#a20025;fontColor=#ffffff;strokeColor=#6F0000;fontFamily=Comic Sans MS;sketch=1;curveFitting=1;jiggle=2;" parent="1" vertex="1">
          <mxGeometry x="-640" y="3399" width="40" height="40" as="geometry" />
        </mxCell>
        <mxCell id="pGcrkfZ3z-2yp8zZS3SY-117" value="&lt;font face=&quot;Comic Sans MS&quot;&gt;[5]&lt;/font&gt;" style="text;html=1;align=center;verticalAlign=middle;resizable=0;points=[];autosize=1;strokeColor=none;fillColor=none;" parent="1" vertex="1">
          <mxGeometry x="-520" y="3439" width="40" height="30" as="geometry" />
        </mxCell>
        <mxCell id="pGcrkfZ3z-2yp8zZS3SY-118" value="&lt;font face=&quot;Comic Sans MS&quot;&gt;middle&lt;/font&gt;" style="text;html=1;align=center;verticalAlign=middle;resizable=0;points=[];autosize=1;strokeColor=none;fillColor=none;textOpacity=20;" parent="1" vertex="1">
          <mxGeometry x="-570" y="3355" width="60" height="30" as="geometry" />
        </mxCell>
        <mxCell id="pGcrkfZ3z-2yp8zZS3SY-134" value="1" style="whiteSpace=wrap;html=1;strokeWidth=2;fillColor=#a20025;fontColor=#ffffff;strokeColor=#6F0000;fontFamily=Comic Sans MS;sketch=1;curveFitting=1;jiggle=2;" parent="1" vertex="1">
          <mxGeometry x="-720" y="3519" width="40" height="40" as="geometry" />
        </mxCell>
        <mxCell id="pGcrkfZ3z-2yp8zZS3SY-135" value="2" style="whiteSpace=wrap;html=1;strokeWidth=2;fillColor=#a20025;fontColor=#ffffff;strokeColor=#6F0000;fontFamily=Comic Sans MS;sketch=1;curveFitting=1;jiggle=2;" parent="1" vertex="1">
          <mxGeometry x="-680" y="3519" width="40" height="40" as="geometry" />
        </mxCell>
        <mxCell id="pGcrkfZ3z-2yp8zZS3SY-136" value="3" style="whiteSpace=wrap;html=1;strokeWidth=2;fillColor=#0050ef;fontColor=#ffffff;strokeColor=#001DBC;fontFamily=Comic Sans MS;sketch=1;curveFitting=1;jiggle=2;" parent="1" vertex="1">
          <mxGeometry x="-600" y="3519" width="40" height="40" as="geometry" />
        </mxCell>
        <mxCell id="pGcrkfZ3z-2yp8zZS3SY-137" value="3" style="whiteSpace=wrap;html=1;strokeWidth=2;fillColor=#0050ef;fontColor=#ffffff;strokeColor=#001DBC;fontFamily=Comic Sans MS;sketch=1;curveFitting=1;jiggle=2;" parent="1" vertex="1">
          <mxGeometry x="-560" y="3519" width="40" height="40" as="geometry" />
        </mxCell>
        <mxCell id="pGcrkfZ3z-2yp8zZS3SY-138" value="4" style="whiteSpace=wrap;html=1;strokeWidth=2;fillColor=#0050ef;fontColor=#ffffff;strokeColor=#001DBC;fontFamily=Comic Sans MS;sketch=1;curveFitting=1;jiggle=2;" parent="1" vertex="1">
          <mxGeometry x="-520" y="3519" width="40" height="40" as="geometry" />
        </mxCell>
        <mxCell id="pGcrkfZ3z-2yp8zZS3SY-139" value="&lt;font face=&quot;Comic Sans MS&quot;&gt;left&lt;/font&gt;" style="text;html=1;align=center;verticalAlign=middle;resizable=0;points=[];autosize=1;strokeColor=none;fillColor=none;" parent="1" vertex="1">
          <mxGeometry x="-605" y="3499" width="50" height="30" as="geometry" />
        </mxCell>
        <mxCell id="pGcrkfZ3z-2yp8zZS3SY-140" value="&lt;font face=&quot;Comic Sans MS&quot;&gt;right&lt;/font&gt;" style="text;html=1;align=center;verticalAlign=middle;resizable=0;points=[];autosize=1;strokeColor=none;fillColor=none;" parent="1" vertex="1">
          <mxGeometry x="-605" y="3483" width="50" height="30" as="geometry" />
        </mxCell>
        <mxCell id="pGcrkfZ3z-2yp8zZS3SY-141" value="&lt;font face=&quot;Comic Sans MS&quot;&gt;[0]&lt;/font&gt;" style="text;html=1;align=center;verticalAlign=middle;resizable=0;points=[];autosize=1;strokeColor=none;fillColor=none;" parent="1" vertex="1">
          <mxGeometry x="-720" y="3559" width="40" height="30" as="geometry" />
        </mxCell>
        <mxCell id="pGcrkfZ3z-2yp8zZS3SY-142" value="&lt;font face=&quot;Comic Sans MS&quot;&gt;[1]&lt;/font&gt;" style="text;html=1;align=center;verticalAlign=middle;resizable=0;points=[];autosize=1;strokeColor=none;fillColor=none;" parent="1" vertex="1">
          <mxGeometry x="-680" y="3559" width="40" height="30" as="geometry" />
        </mxCell>
        <mxCell id="pGcrkfZ3z-2yp8zZS3SY-143" value="&lt;font face=&quot;Comic Sans MS&quot;&gt;[2]&lt;/font&gt;" style="text;html=1;align=center;verticalAlign=middle;resizable=0;points=[];autosize=1;strokeColor=none;fillColor=none;" parent="1" vertex="1">
          <mxGeometry x="-640" y="3559" width="40" height="30" as="geometry" />
        </mxCell>
        <mxCell id="pGcrkfZ3z-2yp8zZS3SY-144" value="&lt;font face=&quot;Comic Sans MS&quot;&gt;[3]&lt;/font&gt;" style="text;html=1;align=center;verticalAlign=middle;resizable=0;points=[];autosize=1;strokeColor=none;fillColor=none;" parent="1" vertex="1">
          <mxGeometry x="-600" y="3559" width="40" height="30" as="geometry" />
        </mxCell>
        <mxCell id="pGcrkfZ3z-2yp8zZS3SY-145" value="&lt;font face=&quot;Comic Sans MS&quot;&gt;[4]&lt;/font&gt;" style="text;html=1;align=center;verticalAlign=middle;resizable=0;points=[];autosize=1;strokeColor=none;fillColor=none;" parent="1" vertex="1">
          <mxGeometry x="-560" y="3559" width="40" height="30" as="geometry" />
        </mxCell>
        <mxCell id="pGcrkfZ3z-2yp8zZS3SY-146" value="2" style="whiteSpace=wrap;html=1;strokeWidth=2;fillColor=#a20025;fontColor=#ffffff;strokeColor=#6F0000;fontFamily=Comic Sans MS;sketch=1;curveFitting=1;jiggle=2;" parent="1" vertex="1">
          <mxGeometry x="-640" y="3519" width="40" height="40" as="geometry" />
        </mxCell>
        <mxCell id="pGcrkfZ3z-2yp8zZS3SY-147" value="&lt;font face=&quot;Comic Sans MS&quot;&gt;[5]&lt;/font&gt;" style="text;html=1;align=center;verticalAlign=middle;resizable=0;points=[];autosize=1;strokeColor=none;fillColor=none;" parent="1" vertex="1">
          <mxGeometry x="-520" y="3559" width="40" height="30" as="geometry" />
        </mxCell>
        <mxCell id="pGcrkfZ3z-2yp8zZS3SY-148" value="&lt;font face=&quot;Comic Sans MS&quot;&gt;middle&lt;/font&gt;" style="text;html=1;align=center;verticalAlign=middle;resizable=0;points=[];autosize=1;strokeColor=none;fillColor=none;" parent="1" vertex="1">
          <mxGeometry x="-610" y="3469" width="60" height="30" as="geometry" />
        </mxCell>
        <mxCell id="_zYzk73vHFBM92SBb8uo-4" value="" style="whiteSpace=wrap;html=1;strokeWidth=2;fillColor=#a20025;fontColor=#ffffff;strokeColor=#6F0000;fontFamily=Comic Sans MS;sketch=1;curveFitting=1;jiggle=2;" vertex="1" parent="1">
          <mxGeometry x="-421" y="3638" width="40" height="40" as="geometry" />
        </mxCell>
        <mxCell id="_zYzk73vHFBM92SBb8uo-5" value="&lt;font face=&quot;Comic Sans MS&quot;&gt;right&lt;/font&gt;" style="text;html=1;align=center;verticalAlign=middle;resizable=0;points=[];autosize=1;strokeColor=none;fillColor=none;" vertex="1" parent="1">
          <mxGeometry x="-386" y="3608" width="50" height="30" as="geometry" />
        </mxCell>
        <mxCell id="_zYzk73vHFBM92SBb8uo-6" value="&lt;font face=&quot;Comic Sans MS&quot;&gt;left&lt;/font&gt;" style="text;html=1;align=center;verticalAlign=middle;resizable=0;points=[];autosize=1;strokeColor=none;fillColor=none;" vertex="1" parent="1">
          <mxGeometry x="-426" y="3608" width="50" height="30" as="geometry" />
        </mxCell>
        <mxCell id="_zYzk73vHFBM92SBb8uo-3" value="" style="whiteSpace=wrap;html=1;strokeWidth=2;fillColor=#0050ef;fontColor=#ffffff;strokeColor=#001DBC;fontFamily=Comic Sans MS;sketch=1;curveFitting=1;jiggle=2;" vertex="1" parent="1">
          <mxGeometry x="-381" y="3638" width="40" height="42" as="geometry" />
        </mxCell>
        <mxCell id="_zYzk73vHFBM92SBb8uo-7" value="&lt;font face=&quot;Comic Sans MS&quot;&gt;[0]&lt;/font&gt;" style="text;html=1;align=center;verticalAlign=middle;resizable=0;points=[];autosize=1;strokeColor=none;fillColor=none;" vertex="1" parent="1">
          <mxGeometry x="-421" y="3678" width="40" height="30" as="geometry" />
        </mxCell>
        <mxCell id="_zYzk73vHFBM92SBb8uo-8" value="&lt;font face=&quot;Comic Sans MS&quot;&gt;[1]&lt;/font&gt;" style="text;html=1;align=center;verticalAlign=middle;resizable=0;points=[];autosize=1;strokeColor=none;fillColor=none;" vertex="1" parent="1">
          <mxGeometry x="-381" y="3678" width="40" height="30" as="geometry" />
        </mxCell>
        <mxCell id="_zYzk73vHFBM92SBb8uo-11" value="" style="group" vertex="1" connectable="0" parent="1">
          <mxGeometry x="-431" y="3542" width="60" height="66" as="geometry" />
        </mxCell>
        <mxCell id="_zYzk73vHFBM92SBb8uo-10" value="" style="edgeStyle=none;orthogonalLoop=1;jettySize=auto;html=1;rounded=0;strokeWidth=1;sketch=1;curveFitting=1;jiggle=2;" edge="1" parent="_zYzk73vHFBM92SBb8uo-11">
          <mxGeometry width="100" relative="1" as="geometry">
            <mxPoint x="29.660000000000025" y="26" as="sourcePoint" />
            <mxPoint x="29.660000000000025" y="66" as="targetPoint" />
            <Array as="points" />
          </mxGeometry>
        </mxCell>
        <mxCell id="_zYzk73vHFBM92SBb8uo-9" value="&lt;font face=&quot;Comic Sans MS&quot;&gt;middle&lt;/font&gt;" style="text;html=1;align=center;verticalAlign=middle;resizable=0;points=[];autosize=1;strokeColor=none;fillColor=none;" vertex="1" parent="_zYzk73vHFBM92SBb8uo-11">
          <mxGeometry width="60" height="30" as="geometry" />
        </mxCell>
        <mxCell id="_zYzk73vHFBM92SBb8uo-12" value="" style="whiteSpace=wrap;html=1;strokeWidth=2;fillColor=#a20025;fontColor=#ffffff;strokeColor=#6F0000;fontFamily=Comic Sans MS;sketch=1;curveFitting=1;jiggle=2;" vertex="1" parent="1">
          <mxGeometry x="-160" y="3558" width="40" height="40" as="geometry" />
        </mxCell>
        <mxCell id="_zYzk73vHFBM92SBb8uo-13" value="&lt;font face=&quot;Comic Sans MS&quot;&gt;right&lt;/font&gt;" style="text;html=1;align=center;verticalAlign=middle;resizable=0;points=[];autosize=1;strokeColor=none;fillColor=none;" vertex="1" parent="1">
          <mxGeometry x="-125" y="3528" width="50" height="30" as="geometry" />
        </mxCell>
        <mxCell id="_zYzk73vHFBM92SBb8uo-14" value="&lt;font face=&quot;Comic Sans MS&quot;&gt;left&lt;/font&gt;" style="text;html=1;align=center;verticalAlign=middle;resizable=0;points=[];autosize=1;strokeColor=none;fillColor=none;" vertex="1" parent="1">
          <mxGeometry x="-85" y="3528" width="50" height="30" as="geometry" />
        </mxCell>
        <mxCell id="_zYzk73vHFBM92SBb8uo-15" value="" style="whiteSpace=wrap;html=1;strokeWidth=2;fillColor=#0050ef;fontColor=#ffffff;strokeColor=#001DBC;fontFamily=Comic Sans MS;sketch=1;curveFitting=1;jiggle=2;" vertex="1" parent="1">
          <mxGeometry x="-120" y="3558" width="40" height="40" as="geometry" />
        </mxCell>
        <mxCell id="_zYzk73vHFBM92SBb8uo-16" value="&lt;font face=&quot;Comic Sans MS&quot;&gt;[0]&lt;/font&gt;" style="text;html=1;align=center;verticalAlign=middle;resizable=0;points=[];autosize=1;strokeColor=none;fillColor=none;" vertex="1" parent="1">
          <mxGeometry x="-160" y="3598" width="40" height="30" as="geometry" />
        </mxCell>
        <mxCell id="_zYzk73vHFBM92SBb8uo-17" value="&lt;font face=&quot;Comic Sans MS&quot;&gt;[1]&lt;/font&gt;" style="text;html=1;align=center;verticalAlign=middle;resizable=0;points=[];autosize=1;strokeColor=none;fillColor=none;" vertex="1" parent="1">
          <mxGeometry x="-120" y="3598" width="40" height="30" as="geometry" />
        </mxCell>
        <mxCell id="_zYzk73vHFBM92SBb8uo-21" value="" style="shape=curlyBracket;whiteSpace=wrap;html=1;rounded=1;labelPosition=left;verticalLabelPosition=middle;align=right;verticalAlign=middle;rotation=0;strokeWidth=2;fontFamily=Comic Sans MS;sketch=1;curveFitting=1;jiggle=2;" vertex="1" parent="1">
          <mxGeometry x="-316" y="3584" width="20" height="146" as="geometry" />
        </mxCell>
        <mxCell id="_zYzk73vHFBM92SBb8uo-22" value="" style="whiteSpace=wrap;html=1;strokeWidth=2;fillColor=#a20025;fontColor=#ffffff;strokeColor=#6F0000;fontFamily=Comic Sans MS;sketch=1;curveFitting=1;jiggle=2;" vertex="1" parent="1">
          <mxGeometry x="-160" y="3720" width="40" height="40" as="geometry" />
        </mxCell>
        <mxCell id="_zYzk73vHFBM92SBb8uo-23" value="&lt;font face=&quot;Comic Sans MS&quot;&gt;right&lt;/font&gt;" style="text;html=1;align=center;verticalAlign=middle;resizable=0;points=[];autosize=1;strokeColor=none;fillColor=none;" vertex="1" parent="1">
          <mxGeometry x="-166" y="3670" width="50" height="30" as="geometry" />
        </mxCell>
        <mxCell id="_zYzk73vHFBM92SBb8uo-24" value="&lt;font face=&quot;Comic Sans MS&quot;&gt;left&lt;/font&gt;" style="text;html=1;align=center;verticalAlign=middle;resizable=0;points=[];autosize=1;strokeColor=none;fillColor=none;" vertex="1" parent="1">
          <mxGeometry x="-166" y="3689" width="50" height="30" as="geometry" />
        </mxCell>
        <mxCell id="_zYzk73vHFBM92SBb8uo-25" value="" style="whiteSpace=wrap;html=1;strokeWidth=2;fillColor=#0050ef;fontColor=#ffffff;strokeColor=#001DBC;fontFamily=Comic Sans MS;sketch=1;curveFitting=1;jiggle=2;" vertex="1" parent="1">
          <mxGeometry x="-120" y="3720" width="40" height="40" as="geometry" />
        </mxCell>
        <mxCell id="_zYzk73vHFBM92SBb8uo-26" value="&lt;font face=&quot;Comic Sans MS&quot;&gt;[0]&lt;/font&gt;" style="text;html=1;align=center;verticalAlign=middle;resizable=0;points=[];autosize=1;strokeColor=none;fillColor=none;" vertex="1" parent="1">
          <mxGeometry x="-160" y="3760" width="40" height="30" as="geometry" />
        </mxCell>
        <mxCell id="_zYzk73vHFBM92SBb8uo-27" value="&lt;font face=&quot;Comic Sans MS&quot;&gt;[1]&lt;/font&gt;" style="text;html=1;align=center;verticalAlign=middle;resizable=0;points=[];autosize=1;strokeColor=none;fillColor=none;" vertex="1" parent="1">
          <mxGeometry x="-120" y="3760" width="40" height="30" as="geometry" />
        </mxCell>
        <mxCell id="_zYzk73vHFBM92SBb8uo-31" value="" style="edgeStyle=none;orthogonalLoop=1;jettySize=auto;html=1;rounded=0;strokeWidth=1;sketch=1;curveFitting=1;jiggle=2;textOpacity=20;opacity=20;" edge="1" parent="1">
          <mxGeometry width="100" relative="1" as="geometry">
            <mxPoint x="-141.33999999999997" y="3509" as="sourcePoint" />
            <mxPoint x="-141.33999999999997" y="3549" as="targetPoint" />
            <Array as="points" />
          </mxGeometry>
        </mxCell>
        <mxCell id="_zYzk73vHFBM92SBb8uo-32" value="&lt;font face=&quot;Comic Sans MS&quot;&gt;middle&lt;/font&gt;" style="text;html=1;align=center;verticalAlign=middle;resizable=0;points=[];autosize=1;strokeColor=none;fillColor=none;textOpacity=20;" vertex="1" parent="1">
          <mxGeometry x="-171" y="3483" width="60" height="30" as="geometry" />
        </mxCell>
        <mxCell id="_zYzk73vHFBM92SBb8uo-36" value="" style="edgeStyle=none;orthogonalLoop=1;jettySize=auto;html=1;rounded=0;strokeWidth=1;sketch=1;curveFitting=1;jiggle=2;textOpacity=20;opacity=20;" edge="1" parent="1">
          <mxGeometry width="100" relative="1" as="geometry">
            <mxPoint x="-141.33999999999997" y="3671" as="sourcePoint" />
            <mxPoint x="-141.33999999999997" y="3711" as="targetPoint" />
            <Array as="points" />
          </mxGeometry>
        </mxCell>
        <mxCell id="_zYzk73vHFBM92SBb8uo-37" value="&lt;font face=&quot;Comic Sans MS&quot;&gt;middle&lt;/font&gt;" style="text;html=1;align=center;verticalAlign=middle;resizable=0;points=[];autosize=1;strokeColor=none;fillColor=none;textOpacity=20;" vertex="1" parent="1">
          <mxGeometry x="-171" y="3645" width="60" height="30" as="geometry" />
        </mxCell>
        <mxCell id="_zYzk73vHFBM92SBb8uo-38" value="&lt;font face=&quot;Comic Sans MS&quot;&gt;if (middle&amp;lt;target)&lt;/font&gt;" style="text;html=1;align=center;verticalAlign=middle;resizable=0;points=[];autosize=1;strokeColor=none;fillColor=none;" vertex="1" parent="1">
          <mxGeometry x="-296" y="3568" width="120" height="30" as="geometry" />
        </mxCell>
        <mxCell id="_zYzk73vHFBM92SBb8uo-39" value="&lt;font face=&quot;Comic Sans MS&quot;&gt;if (middle&amp;gt;=target)&lt;/font&gt;" style="text;html=1;align=center;verticalAlign=middle;resizable=0;points=[];autosize=1;strokeColor=none;fillColor=none;" vertex="1" parent="1">
          <mxGeometry x="-296" y="3714" width="130" height="30" as="geometry" />
        </mxCell>
        <mxCell id="_zYzk73vHFBM92SBb8uo-43" value="" style="whiteSpace=wrap;html=1;strokeWidth=2;fontFamily=Comic Sans MS;sketch=1;curveFitting=1;jiggle=2;" vertex="1" parent="1">
          <mxGeometry x="-459" y="3940" width="449" height="320" as="geometry" />
        </mxCell>
        <mxCell id="_zYzk73vHFBM92SBb8uo-44" value="" style="whiteSpace=wrap;html=1;strokeWidth=2;fillColor=#a20025;fontColor=#ffffff;strokeColor=#6F0000;fontFamily=Comic Sans MS;sketch=1;curveFitting=1;jiggle=2;" vertex="1" parent="1">
          <mxGeometry x="-450" y="4098" width="40" height="40" as="geometry" />
        </mxCell>
        <mxCell id="_zYzk73vHFBM92SBb8uo-45" value="&lt;font face=&quot;Comic Sans MS&quot;&gt;right&lt;/font&gt;" style="text;html=1;align=center;verticalAlign=middle;resizable=0;points=[];autosize=1;strokeColor=none;fillColor=none;" vertex="1" parent="1">
          <mxGeometry x="-415" y="4068" width="50" height="30" as="geometry" />
        </mxCell>
        <mxCell id="_zYzk73vHFBM92SBb8uo-46" value="&lt;font face=&quot;Comic Sans MS&quot;&gt;left&lt;/font&gt;" style="text;html=1;align=center;verticalAlign=middle;resizable=0;points=[];autosize=1;strokeColor=none;fillColor=none;" vertex="1" parent="1">
          <mxGeometry x="-455" y="4068" width="50" height="30" as="geometry" />
        </mxCell>
        <mxCell id="_zYzk73vHFBM92SBb8uo-47" value="" style="whiteSpace=wrap;html=1;strokeWidth=2;fillColor=#0050ef;fontColor=#ffffff;strokeColor=#001DBC;fontFamily=Comic Sans MS;sketch=1;curveFitting=1;jiggle=2;" vertex="1" parent="1">
          <mxGeometry x="-410" y="4098" width="40" height="42" as="geometry" />
        </mxCell>
        <mxCell id="_zYzk73vHFBM92SBb8uo-48" value="&lt;font face=&quot;Comic Sans MS&quot;&gt;[0]&lt;/font&gt;" style="text;html=1;align=center;verticalAlign=middle;resizable=0;points=[];autosize=1;strokeColor=none;fillColor=none;" vertex="1" parent="1">
          <mxGeometry x="-450" y="4138" width="40" height="30" as="geometry" />
        </mxCell>
        <mxCell id="_zYzk73vHFBM92SBb8uo-49" value="&lt;font face=&quot;Comic Sans MS&quot;&gt;[1]&lt;/font&gt;" style="text;html=1;align=center;verticalAlign=middle;resizable=0;points=[];autosize=1;strokeColor=none;fillColor=none;" vertex="1" parent="1">
          <mxGeometry x="-410" y="4138" width="40" height="30" as="geometry" />
        </mxCell>
        <mxCell id="_zYzk73vHFBM92SBb8uo-50" value="" style="group" vertex="1" connectable="0" parent="1">
          <mxGeometry x="-420" y="4002" width="60" height="66" as="geometry" />
        </mxCell>
        <mxCell id="_zYzk73vHFBM92SBb8uo-51" value="" style="edgeStyle=none;orthogonalLoop=1;jettySize=auto;html=1;rounded=0;strokeWidth=1;sketch=1;curveFitting=1;jiggle=2;" edge="1" parent="_zYzk73vHFBM92SBb8uo-50">
          <mxGeometry width="100" relative="1" as="geometry">
            <mxPoint x="29.660000000000025" y="26" as="sourcePoint" />
            <mxPoint x="29.660000000000025" y="66" as="targetPoint" />
            <Array as="points" />
          </mxGeometry>
        </mxCell>
        <mxCell id="_zYzk73vHFBM92SBb8uo-52" value="&lt;font face=&quot;Comic Sans MS&quot;&gt;middle&lt;/font&gt;" style="text;html=1;align=center;verticalAlign=middle;resizable=0;points=[];autosize=1;strokeColor=none;fillColor=none;" vertex="1" parent="_zYzk73vHFBM92SBb8uo-50">
          <mxGeometry width="60" height="30" as="geometry" />
        </mxCell>
        <mxCell id="_zYzk73vHFBM92SBb8uo-53" value="" style="whiteSpace=wrap;html=1;strokeWidth=2;fillColor=#a20025;fontColor=#ffffff;strokeColor=#6F0000;fontFamily=Comic Sans MS;sketch=1;curveFitting=1;jiggle=2;" vertex="1" parent="1">
          <mxGeometry x="-189" y="4018" width="40" height="40" as="geometry" />
        </mxCell>
        <mxCell id="_zYzk73vHFBM92SBb8uo-54" value="&lt;font face=&quot;Comic Sans MS&quot;&gt;right&lt;/font&gt;" style="text;html=1;align=center;verticalAlign=middle;resizable=0;points=[];autosize=1;strokeColor=none;fillColor=none;" vertex="1" parent="1">
          <mxGeometry x="-154" y="3988" width="50" height="30" as="geometry" />
        </mxCell>
        <mxCell id="_zYzk73vHFBM92SBb8uo-55" value="&lt;font face=&quot;Comic Sans MS&quot;&gt;left&lt;/font&gt;" style="text;html=1;align=center;verticalAlign=middle;resizable=0;points=[];autosize=1;strokeColor=none;fillColor=none;" vertex="1" parent="1">
          <mxGeometry x="-114" y="3988" width="50" height="30" as="geometry" />
        </mxCell>
        <mxCell id="_zYzk73vHFBM92SBb8uo-56" value="" style="whiteSpace=wrap;html=1;strokeWidth=2;fillColor=#0050ef;fontColor=#ffffff;strokeColor=#001DBC;fontFamily=Comic Sans MS;sketch=1;curveFitting=1;jiggle=2;" vertex="1" parent="1">
          <mxGeometry x="-149" y="4018" width="40" height="40" as="geometry" />
        </mxCell>
        <mxCell id="_zYzk73vHFBM92SBb8uo-57" value="&lt;font face=&quot;Comic Sans MS&quot;&gt;[0]&lt;/font&gt;" style="text;html=1;align=center;verticalAlign=middle;resizable=0;points=[];autosize=1;strokeColor=none;fillColor=none;" vertex="1" parent="1">
          <mxGeometry x="-189" y="4058" width="40" height="30" as="geometry" />
        </mxCell>
        <mxCell id="_zYzk73vHFBM92SBb8uo-58" value="&lt;font face=&quot;Comic Sans MS&quot;&gt;[1]&lt;/font&gt;" style="text;html=1;align=center;verticalAlign=middle;resizable=0;points=[];autosize=1;strokeColor=none;fillColor=none;" vertex="1" parent="1">
          <mxGeometry x="-149" y="4058" width="40" height="30" as="geometry" />
        </mxCell>
        <mxCell id="_zYzk73vHFBM92SBb8uo-59" value="" style="shape=curlyBracket;whiteSpace=wrap;html=1;rounded=1;labelPosition=left;verticalLabelPosition=middle;align=right;verticalAlign=middle;rotation=0;strokeWidth=2;fontFamily=Comic Sans MS;sketch=1;curveFitting=1;jiggle=2;" vertex="1" parent="1">
          <mxGeometry x="-345" y="4044" width="20" height="146" as="geometry" />
        </mxCell>
        <mxCell id="_zYzk73vHFBM92SBb8uo-60" value="" style="whiteSpace=wrap;html=1;strokeWidth=2;fillColor=#a20025;fontColor=#ffffff;strokeColor=#6F0000;fontFamily=Comic Sans MS;sketch=1;curveFitting=1;jiggle=2;" vertex="1" parent="1">
          <mxGeometry x="-189" y="4180" width="40" height="40" as="geometry" />
        </mxCell>
        <mxCell id="_zYzk73vHFBM92SBb8uo-61" value="&lt;font face=&quot;Comic Sans MS&quot;&gt;right&lt;/font&gt;" style="text;html=1;align=center;verticalAlign=middle;resizable=0;points=[];autosize=1;strokeColor=none;fillColor=none;" vertex="1" parent="1">
          <mxGeometry x="-154" y="4149" width="50" height="30" as="geometry" />
        </mxCell>
        <mxCell id="_zYzk73vHFBM92SBb8uo-62" value="&lt;font face=&quot;Comic Sans MS&quot;&gt;left&lt;/font&gt;" style="text;html=1;align=center;verticalAlign=middle;resizable=0;points=[];autosize=1;strokeColor=none;fillColor=none;" vertex="1" parent="1">
          <mxGeometry x="-195" y="4149" width="50" height="30" as="geometry" />
        </mxCell>
        <mxCell id="_zYzk73vHFBM92SBb8uo-63" value="" style="whiteSpace=wrap;html=1;strokeWidth=2;fillColor=#0050ef;fontColor=#ffffff;strokeColor=#001DBC;fontFamily=Comic Sans MS;sketch=1;curveFitting=1;jiggle=2;" vertex="1" parent="1">
          <mxGeometry x="-149" y="4180" width="40" height="40" as="geometry" />
        </mxCell>
        <mxCell id="_zYzk73vHFBM92SBb8uo-64" value="&lt;font face=&quot;Comic Sans MS&quot;&gt;[0]&lt;/font&gt;" style="text;html=1;align=center;verticalAlign=middle;resizable=0;points=[];autosize=1;strokeColor=none;fillColor=none;" vertex="1" parent="1">
          <mxGeometry x="-189" y="4220" width="40" height="30" as="geometry" />
        </mxCell>
        <mxCell id="_zYzk73vHFBM92SBb8uo-65" value="&lt;font face=&quot;Comic Sans MS&quot;&gt;[1]&lt;/font&gt;" style="text;html=1;align=center;verticalAlign=middle;resizable=0;points=[];autosize=1;strokeColor=none;fillColor=none;" vertex="1" parent="1">
          <mxGeometry x="-149" y="4220" width="40" height="30" as="geometry" />
        </mxCell>
        <mxCell id="_zYzk73vHFBM92SBb8uo-70" value="&lt;font face=&quot;Comic Sans MS&quot;&gt;if (middle&amp;lt;target)&lt;/font&gt;" style="text;html=1;align=center;verticalAlign=middle;resizable=0;points=[];autosize=1;strokeColor=none;fillColor=none;" vertex="1" parent="1">
          <mxGeometry x="-325" y="4028" width="120" height="30" as="geometry" />
        </mxCell>
        <mxCell id="_zYzk73vHFBM92SBb8uo-71" value="&lt;font face=&quot;Comic Sans MS&quot;&gt;if (middle&amp;gt;=target)&lt;/font&gt;" style="text;html=1;align=center;verticalAlign=middle;resizable=0;points=[];autosize=1;strokeColor=none;fillColor=none;" vertex="1" parent="1">
          <mxGeometry x="-325" y="4174" width="130" height="30" as="geometry" />
        </mxCell>
        <mxCell id="_zYzk73vHFBM92SBb8uo-72" value="" style="group" vertex="1" connectable="0" parent="1">
          <mxGeometry x="-159" y="3945" width="60" height="66" as="geometry" />
        </mxCell>
        <mxCell id="_zYzk73vHFBM92SBb8uo-66" value="" style="edgeStyle=none;orthogonalLoop=1;jettySize=auto;html=1;rounded=0;strokeWidth=1;sketch=1;curveFitting=1;jiggle=2;textOpacity=20;opacity=20;" edge="1" parent="_zYzk73vHFBM92SBb8uo-72">
          <mxGeometry width="100" relative="1" as="geometry">
            <mxPoint x="29.660000000000025" y="26" as="sourcePoint" />
            <mxPoint x="29.660000000000025" y="66" as="targetPoint" />
            <Array as="points" />
          </mxGeometry>
        </mxCell>
        <mxCell id="_zYzk73vHFBM92SBb8uo-67" value="&lt;font face=&quot;Comic Sans MS&quot;&gt;middle&lt;/font&gt;" style="text;html=1;align=center;verticalAlign=middle;resizable=0;points=[];autosize=1;strokeColor=none;fillColor=none;textOpacity=20;" vertex="1" parent="_zYzk73vHFBM92SBb8uo-72">
          <mxGeometry width="60" height="30" as="geometry" />
        </mxCell>
        <mxCell id="_zYzk73vHFBM92SBb8uo-75" value="" style="group" vertex="1" connectable="0" parent="1">
          <mxGeometry x="-159" y="4108" width="60" height="66" as="geometry" />
        </mxCell>
        <mxCell id="_zYzk73vHFBM92SBb8uo-68" value="" style="edgeStyle=none;orthogonalLoop=1;jettySize=auto;html=1;rounded=0;strokeWidth=1;sketch=1;curveFitting=1;jiggle=2;textOpacity=20;opacity=20;" edge="1" parent="_zYzk73vHFBM92SBb8uo-75">
          <mxGeometry width="100" relative="1" as="geometry">
            <mxPoint x="29.660000000000025" y="26" as="sourcePoint" />
            <mxPoint x="29.660000000000025" y="66" as="targetPoint" />
            <Array as="points" />
          </mxGeometry>
        </mxCell>
        <mxCell id="_zYzk73vHFBM92SBb8uo-69" value="&lt;font face=&quot;Comic Sans MS&quot;&gt;middle&lt;/font&gt;" style="text;html=1;align=center;verticalAlign=middle;resizable=0;points=[];autosize=1;strokeColor=none;fillColor=none;textOpacity=20;" vertex="1" parent="_zYzk73vHFBM92SBb8uo-75">
          <mxGeometry width="60" height="30" as="geometry" />
        </mxCell>
        <mxCell id="_zYzk73vHFBM92SBb8uo-77" value="&lt;font color=&quot;#ff0000&quot; face=&quot;Comic Sans MS&quot;&gt;right 始终停留在&lt;br&gt;这里，出现死循环&lt;/font&gt;" style="text;html=1;align=center;verticalAlign=middle;resizable=0;points=[];autosize=1;strokeColor=none;fillColor=none;" vertex="1" parent="1">
          <mxGeometry x="-125" y="4124" width="120" height="40" as="geometry" />
        </mxCell>
        <mxCell id="_zYzk73vHFBM92SBb8uo-78" value="1" style="whiteSpace=wrap;html=1;strokeWidth=2;fillColor=#a20025;fontColor=#ffffff;strokeColor=#6F0000;fontFamily=Comic Sans MS;sketch=1;curveFitting=1;jiggle=2;" vertex="1" parent="1">
          <mxGeometry x="-1125" y="2740" width="40" height="40" as="geometry" />
        </mxCell>
        <mxCell id="_zYzk73vHFBM92SBb8uo-79" value="2" style="whiteSpace=wrap;html=1;strokeWidth=2;fillColor=#a20025;fontColor=#ffffff;strokeColor=#6F0000;fontFamily=Comic Sans MS;sketch=1;curveFitting=1;jiggle=2;" vertex="1" parent="1">
          <mxGeometry x="-1085" y="2740" width="40" height="40" as="geometry" />
        </mxCell>
        <mxCell id="_zYzk73vHFBM92SBb8uo-80" value="3" style="whiteSpace=wrap;html=1;strokeWidth=2;fillColor=#a20025;fontColor=#ffffff;strokeColor=#6F0000;fontFamily=Comic Sans MS;sketch=1;curveFitting=1;jiggle=2;" vertex="1" parent="1">
          <mxGeometry x="-1005" y="2740" width="40" height="40" as="geometry" />
        </mxCell>
        <mxCell id="_zYzk73vHFBM92SBb8uo-81" value="3" style="whiteSpace=wrap;html=1;strokeWidth=2;fillColor=#a20025;fontColor=#ffffff;strokeColor=#6F0000;fontFamily=Comic Sans MS;sketch=1;curveFitting=1;jiggle=2;" vertex="1" parent="1">
          <mxGeometry x="-965" y="2740" width="40" height="40" as="geometry" />
        </mxCell>
        <mxCell id="_zYzk73vHFBM92SBb8uo-82" value="4" style="whiteSpace=wrap;html=1;strokeWidth=2;fillColor=#0050ef;fontColor=#ffffff;strokeColor=#001DBC;fontFamily=Comic Sans MS;sketch=1;curveFitting=1;jiggle=2;" vertex="1" parent="1">
          <mxGeometry x="-925" y="2740" width="40" height="40" as="geometry" />
        </mxCell>
        <mxCell id="_zYzk73vHFBM92SBb8uo-83" value="&lt;font face=&quot;Comic Sans MS&quot;&gt;left&lt;/font&gt;" style="text;html=1;align=center;verticalAlign=middle;resizable=0;points=[];autosize=1;strokeColor=none;fillColor=none;" vertex="1" parent="1">
          <mxGeometry x="-1130" y="2710" width="50" height="30" as="geometry" />
        </mxCell>
        <mxCell id="_zYzk73vHFBM92SBb8uo-84" value="&lt;font face=&quot;Comic Sans MS&quot;&gt;right&lt;/font&gt;" style="text;html=1;align=center;verticalAlign=middle;resizable=0;points=[];autosize=1;strokeColor=none;fillColor=none;" vertex="1" parent="1">
          <mxGeometry x="-885" y="2710" width="50" height="30" as="geometry" />
        </mxCell>
        <mxCell id="_zYzk73vHFBM92SBb8uo-85" value="&lt;font face=&quot;Comic Sans MS&quot;&gt;[0]&lt;/font&gt;" style="text;html=1;align=center;verticalAlign=middle;resizable=0;points=[];autosize=1;strokeColor=none;fillColor=none;" vertex="1" parent="1">
          <mxGeometry x="-1125" y="2780" width="40" height="30" as="geometry" />
        </mxCell>
        <mxCell id="_zYzk73vHFBM92SBb8uo-86" value="&lt;font face=&quot;Comic Sans MS&quot;&gt;[1]&lt;/font&gt;" style="text;html=1;align=center;verticalAlign=middle;resizable=0;points=[];autosize=1;strokeColor=none;fillColor=none;" vertex="1" parent="1">
          <mxGeometry x="-1085" y="2780" width="40" height="30" as="geometry" />
        </mxCell>
        <mxCell id="_zYzk73vHFBM92SBb8uo-87" value="&lt;font face=&quot;Comic Sans MS&quot;&gt;[2]&lt;/font&gt;" style="text;html=1;align=center;verticalAlign=middle;resizable=0;points=[];autosize=1;strokeColor=none;fillColor=none;" vertex="1" parent="1">
          <mxGeometry x="-1045" y="2780" width="40" height="30" as="geometry" />
        </mxCell>
        <mxCell id="_zYzk73vHFBM92SBb8uo-88" value="&lt;font face=&quot;Comic Sans MS&quot;&gt;[3]&lt;/font&gt;" style="text;html=1;align=center;verticalAlign=middle;resizable=0;points=[];autosize=1;strokeColor=none;fillColor=none;" vertex="1" parent="1">
          <mxGeometry x="-1005" y="2780" width="40" height="30" as="geometry" />
        </mxCell>
        <mxCell id="_zYzk73vHFBM92SBb8uo-89" value="&lt;font face=&quot;Comic Sans MS&quot;&gt;[4]&lt;/font&gt;" style="text;html=1;align=center;verticalAlign=middle;resizable=0;points=[];autosize=1;strokeColor=none;fillColor=none;" vertex="1" parent="1">
          <mxGeometry x="-965" y="2780" width="40" height="30" as="geometry" />
        </mxCell>
        <mxCell id="_zYzk73vHFBM92SBb8uo-90" value="2" style="whiteSpace=wrap;html=1;strokeWidth=2;fillColor=#a20025;fontColor=#ffffff;strokeColor=#6F0000;fontFamily=Comic Sans MS;sketch=1;curveFitting=1;jiggle=2;" vertex="1" parent="1">
          <mxGeometry x="-1045" y="2740" width="40" height="40" as="geometry" />
        </mxCell>
        <mxCell id="_zYzk73vHFBM92SBb8uo-91" value="&lt;font face=&quot;Comic Sans MS&quot;&gt;[5]&lt;/font&gt;" style="text;html=1;align=center;verticalAlign=middle;resizable=0;points=[];autosize=1;strokeColor=none;fillColor=none;" vertex="1" parent="1">
          <mxGeometry x="-925" y="2780" width="40" height="30" as="geometry" />
        </mxCell>
        <mxCell id="_zYzk73vHFBM92SBb8uo-92" value="&lt;font face=&quot;Comic Sans MS&quot;&gt;middle&lt;/font&gt;" style="text;html=1;align=center;verticalAlign=middle;resizable=0;points=[];autosize=1;strokeColor=none;fillColor=none;" vertex="1" parent="1">
          <mxGeometry x="-1015" y="2710" width="60" height="30" as="geometry" />
        </mxCell>
        <mxCell id="_zYzk73vHFBM92SBb8uo-93" value="5" style="whiteSpace=wrap;html=1;strokeWidth=2;fillColor=#0050ef;fontColor=#ffffff;strokeColor=#001DBC;fontFamily=Comic Sans MS;sketch=1;curveFitting=1;jiggle=2;" vertex="1" parent="1">
          <mxGeometry x="-885" y="2740" width="40" height="40" as="geometry" />
        </mxCell>
      </root>
    </mxGraphModel>
  </diagram>
</mxfile>
